<?xml version="1.0" encoding="utf-8"?>
<!-- Generator: Adobe Illustrator 21.0.0, SVG Export Plug-In . SVG Version: 6.00 Build 0)  -->
<svg version="1.1" id="Layer_1" xmlns="http://www.w3.org/2000/svg" xmlns:xlink="http://www.w3.org/1999/xlink" x="0px" y="0px"
	 viewBox="0 0 500 500" style="enable-background:new 0 0 500 500;" xml:space="preserve">
<style type="text/css">
	.st0{fill:#808080;}
	.st1{fill:#1A2349;}
	.st2{fill:#070031;}
	.st3{fill:#FDCD97;}
	.st4{fill:#006838;}
	.st5{fill:#603813;}
	.st6{fill:#003317;}
	.st7{fill:#D8A780;}
	.st8{fill:#E6EDB5;}
	.st9{fill:#754C28;}
	.st10{fill:#0B5A32;}
</style>
<rect x="201.6" y="381.6" class="st0" width="9.8" height="9.8"/>
<rect x="211.4" y="381.6" class="st0" width="9.8" height="9.8"/>
<rect x="211.4" y="322.8" class="st1" width="9.8" height="9.8"/>
<rect x="191.8" y="362" class="st1" width="9.8" height="9.8"/>
<rect x="201.6" y="342.4" class="st1" width="9.8" height="9.8"/>
<rect x="221.2" y="303.2" class="st1" width="9.8" height="9.8"/>
<rect x="201.6" y="371.8" class="st2" width="9.8" height="9.8"/>
<rect x="191.8" y="381.6" class="st0" width="9.8" height="9.8"/>
<rect x="191.8" y="371.8" class="st1" width="9.8" height="9.8"/>
<rect x="211.4" y="362" class="st2" width="9.8" height="9.8"/>
<rect x="211.4" y="352.2" class="st2" width="9.8" height="9.8"/>
<rect x="201.6" y="362" class="st1" width="9.8" height="9.8"/>
<rect x="201.6" y="352.2" class="st1" width="9.8" height="9.8"/>
<rect x="221.2" y="332.6" class="st2" width="9.8" height="9.8"/>
<rect x="221.2" y="342.4" class="st2" width="9.8" height="9.8"/>
<rect x="211.4" y="332.6" class="st1" width="9.8" height="9.8"/>
<rect x="211.4" y="342.4" class="st1" width="9.8" height="9.8"/>
<rect x="221.2" y="322.8" class="st1" width="9.8" height="9.8"/>
<rect x="221.2" y="313" class="st1" width="9.8" height="9.8"/>
<rect x="231" y="313" class="st1" width="9.8" height="9.8"/>
<rect x="231" y="303.2" class="st1" width="9.8" height="9.8"/>
<rect x="240.8" y="303.2" class="st1" width="9.8" height="9.8"/>
<rect x="231" y="322.8" class="st2" width="9.8" height="9.8"/>
<rect x="240.8" y="313" class="st2" width="9.8" height="9.8"/>
<rect x="250.6" y="303.2" class="st2" width="9.8" height="9.8"/>
<rect x="309.4" y="313" class="st2" width="9.8" height="9.8"/>
<rect x="309.4" y="303.2" class="st2" width="9.8" height="9.8"/>
<rect x="309.4" y="293.4" class="st2" width="9.8" height="9.8"/>
<rect x="309.4" y="283.6" class="st2" width="9.8" height="9.8"/>
<rect x="299.6" y="342.4" class="st0" width="9.8" height="9.8"/>
<rect x="299.6" y="322.8" class="st2" width="9.8" height="9.8"/>
<rect x="299.6" y="313" class="st1" width="9.8" height="9.8"/>
<rect x="299.6" y="303.2" class="st1" width="9.8" height="9.8"/>
<rect x="299.6" y="293.4" class="st1" width="9.8" height="9.8"/>
<rect x="299.6" y="283.6" class="st2" width="9.8" height="9.8"/>
<rect x="289.8" y="342.4" class="st0" width="9.8" height="9.8"/>
<rect x="289.8" y="332.6" class="st2" width="9.8" height="9.8"/>
<rect x="289.8" y="322.8" class="st1" width="9.8" height="9.8"/>
<rect x="289.8" y="313" class="st1" width="9.8" height="9.8"/>
<rect x="289.8" y="293.4" class="st1" width="9.8" height="9.8"/>
<rect x="289.8" y="283.6" class="st2" width="9.8" height="9.8"/>
<rect x="289.8" y="273.8" class="st3" width="9.8" height="9.8"/>
<rect x="289.8" y="264" class="st3" width="9.8" height="9.8"/>
<rect x="289.8" y="254.2" class="st4" width="9.8" height="9.8"/>
<rect x="289.8" y="244.4" class="st4" width="9.8" height="9.8"/>
<rect x="289.8" y="234.6" class="st4" width="9.8" height="9.8"/>
<rect x="289.8" y="224.8" class="st4" width="9.8" height="9.8"/>
<rect x="289.8" y="215" class="st4" width="9.8" height="9.8"/>
<rect x="289.8" y="205.2" class="st4" width="9.8" height="9.8"/>
<rect x="289.8" y="195.4" class="st4" width="9.8" height="9.8"/>
<rect x="289.8" y="185.6" class="st4" width="9.8" height="9.8"/>
<rect x="289.8" y="175.8" class="st4" width="9.8" height="9.8"/>
<rect x="289.8" y="126.7" class="st5" width="9.8" height="9.8"/>
<rect x="289.8" y="116.9" class="st5" width="9.8" height="9.8"/>
<rect x="280" y="342.4" class="st0" width="9.8" height="9.8"/>
<rect x="280" y="332.6" class="st1" width="9.8" height="9.8"/>
<rect x="280" y="322.8" class="st1" width="9.8" height="9.8"/>
<rect x="280" y="293.4" class="st1" width="9.8" height="9.8"/>
<rect x="280" y="283.6" class="st2" width="9.8" height="9.8"/>
<rect x="280" y="273.8" class="st4" width="9.8" height="9.8"/>
<rect x="280" y="264" class="st4" width="9.8" height="9.8"/>
<rect x="280" y="254.2" class="st4" width="9.8" height="9.8"/>
<rect x="280" y="244.4" class="st4" width="9.8" height="9.8"/>
<rect x="280" y="234.6" class="st4" width="9.8" height="9.8"/>
<rect x="280" y="224.8" class="st4" width="9.8" height="9.8"/>
<rect x="280" y="215" class="st4" width="9.8" height="9.8"/>
<rect x="280" y="205.2" class="st4" width="9.8" height="9.8"/>
<rect x="280" y="195.4" class="st4" width="9.8" height="9.8"/>
<rect x="280" y="185.6" class="st6" width="9.8" height="9.8"/>
<rect x="280" y="175.8" class="st6" width="9.8" height="9.8"/>
<rect x="280" y="166" class="st3" width="9.8" height="9.8"/>
<rect x="280" y="156.1" class="st3" width="9.8" height="9.8"/>
<rect x="280" y="146.4" class="st7" width="9.8" height="9.8"/>
<rect x="280" y="136.5" class="st3" width="9.8" height="9.8"/>
<rect x="280" y="126.7" class="st3" width="9.8" height="9.8"/>
<rect x="280" y="116.9" class="st5" width="9.8" height="9.8"/>
<rect x="280" y="107.1" class="st5" width="9.8" height="9.8"/>
<rect x="270.2" y="332.6" class="st1" width="9.8" height="9.8"/>
<rect x="270.2" y="293.4" class="st1" width="9.8" height="9.8"/>
<rect x="270.2" y="283.6" class="st1" width="9.8" height="9.8"/>
<rect x="270.2" y="273.8" class="st0" width="9.8" height="9.8"/>
<rect x="270.2" y="264" class="st4" width="9.8" height="9.8"/>
<rect x="270.2" y="254.2" class="st4" width="9.8" height="9.8"/>
<rect x="270.2" y="244.4" class="st4" width="9.8" height="9.8"/>
<rect x="270.2" y="234.6" class="st4" width="9.8" height="9.8"/>
<rect x="270.2" y="224.8" class="st4" width="9.8" height="9.8"/>
<rect x="270.2" y="215" class="st4" width="9.8" height="9.8"/>
<rect x="270.2" y="205.2" class="st4" width="9.8" height="9.8"/>
<rect x="270.2" y="195.4" class="st8" width="9.8" height="9.8"/>
<rect x="270.2" y="185.6" class="st8" width="9.8" height="9.8"/>
<rect x="270.2" y="175.8" class="st3" width="9.8" height="9.8"/>
<rect x="270.2" y="166" class="st3" width="9.8" height="9.8"/>
<rect x="270.2" y="156.1" class="st3" width="9.8" height="9.8"/>
<rect x="270.2" y="146.4" class="st3" width="9.8" height="9.8"/>
<rect x="270.2" y="136.5" width="9.8" height="9.8"/>
<rect x="270.2" y="126.7" class="st3" width="9.8" height="9.8"/>
<rect x="270.2" y="116.9" class="st5" width="9.8" height="9.8"/>
<rect x="270.2" y="107.1" class="st5" width="9.8" height="9.8"/>
<rect x="260.4" y="293.4" class="st1" width="9.8" height="9.8"/>
<rect x="260.4" y="283.6" class="st1" width="9.8" height="9.8"/>
<rect x="260.4" y="273.8" class="st9" width="9.8" height="9.8"/>
<rect x="260.4" y="264" class="st8" width="9.8" height="9.8"/>
<rect x="260.4" y="254.2" class="st8" width="9.8" height="9.8"/>
<rect x="260.4" y="244.4" class="st8" width="9.8" height="9.8"/>
<rect x="260.4" y="234.6" class="st8" width="9.8" height="9.8"/>
<rect x="260.4" y="224.8" class="st8" width="9.8" height="9.8"/>
<rect x="260.4" y="215" class="st8" width="9.8" height="9.8"/>
<rect x="260.4" y="205.2" class="st8" width="9.8" height="9.8"/>
<rect x="260.4" y="195.4" class="st8" width="9.8" height="9.8"/>
<rect x="260.4" y="185.6" class="st8" width="9.8" height="9.8"/>
<rect x="260.4" y="175.8" class="st7" width="9.8" height="9.8"/>
<rect x="260.4" y="166" class="st3" width="9.8" height="9.8"/>
<rect x="260.4" y="156.1" class="st3" width="9.8" height="9.8"/>
<rect x="260.4" y="146.4" class="st3" width="9.8" height="9.8"/>
<rect x="260.4" y="126.7" class="st3" width="9.8" height="9.8"/>
<rect x="260.4" y="116.9" class="st5" width="9.8" height="9.8"/>
<rect x="260.4" y="107.1" class="st5" width="9.8" height="9.8"/>
<rect x="250.6" y="293.4" class="st1" width="9.8" height="9.8"/>
<rect x="250.6" y="283.6" class="st1" width="9.8" height="9.8"/>
<rect x="250.6" y="273.8" class="st0" width="9.8" height="9.8"/>
<rect x="250.6" y="264" class="st4" width="9.8" height="9.8"/>
<rect x="250.6" y="254.2" class="st4" width="9.8" height="9.8"/>
<rect x="250.6" y="244.4" class="st4" width="9.8" height="9.8"/>
<rect x="250.6" y="234.6" class="st4" width="9.8" height="9.8"/>
<rect x="250.6" y="224.8" class="st4" width="9.8" height="9.8"/>
<rect x="250.6" y="215" class="st4" width="9.8" height="9.8"/>
<rect x="250.6" y="205.2" class="st4" width="9.8" height="9.8"/>
<rect x="250.6" y="195.4" class="st8" width="9.8" height="9.8"/>
<rect x="250.6" y="185.6" class="st8" width="9.8" height="9.8"/>
<rect x="250.6" y="175.8" class="st7" width="9.8" height="9.8"/>
<rect x="250.6" y="166" class="st7" width="9.8" height="9.8"/>
<rect x="250.6" y="156.1" class="st3" width="9.8" height="9.8"/>
<rect x="250.6" y="146.4" class="st3" width="9.8" height="9.8"/>
<rect x="250.6" y="136.5" class="st3" width="9.8" height="9.8"/>
<rect x="250.6" y="126.7" class="st5" width="9.8" height="9.8"/>
<rect x="250.6" y="116.9" class="st5" width="9.8" height="9.8"/>
<rect x="250.6" y="107.1" class="st5" width="9.8" height="9.8"/>
<rect x="240.8" y="293.4" class="st1" width="9.8" height="9.8"/>
<rect x="240.8" y="283.6" class="st1" width="9.8" height="9.8"/>
<rect x="240.8" y="273.8" class="st0" width="9.8" height="9.8"/>
<rect x="240.8" y="264" class="st4" width="9.8" height="9.8"/>
<rect x="240.8" y="254.2" class="st4" width="9.8" height="9.8"/>
<rect x="240.8" y="244.4" class="st4" width="9.8" height="9.8"/>
<rect x="240.8" y="234.6" class="st4" width="9.8" height="9.8"/>
<rect x="240.8" y="224.8" class="st4" width="9.8" height="9.8"/>
<rect x="240.8" y="215" class="st4" width="9.8" height="9.8"/>
<rect x="240.8" y="205.2" class="st4" width="9.8" height="9.8"/>
<rect x="240.8" y="195.4" class="st4" width="9.8" height="9.8"/>
<rect x="240.8" y="185.6" class="st6" width="9.8" height="9.8"/>
<rect x="240.8" y="175.8" class="st6" width="9.8" height="9.8"/>
<rect x="240.8" y="166" class="st4" width="9.8" height="9.8"/>
<rect x="240.8" y="146.4" class="st7" width="9.8" height="9.8"/>
<rect x="240.8" y="136.5" class="st3" width="9.8" height="9.8"/>
<rect x="240.8" y="126.7" class="st5" width="9.8" height="9.8"/>
<rect x="240.8" y="116.9" class="st5" width="9.8" height="9.8"/>
<rect x="231" y="293.4" class="st1" width="9.8" height="9.8"/>
<rect x="231" y="283.6" class="st1" width="9.8" height="9.8"/>
<rect x="231" y="273.8" class="st10" width="9.8" height="9.8"/>
<rect x="231" y="264" class="st10" width="9.8" height="9.8"/>
<rect x="231" y="254.2" class="st4" width="9.8" height="9.8"/>
<rect x="231" y="244.4" class="st4" width="9.8" height="9.8"/>
<rect x="231" y="234.6" class="st4" width="9.8" height="9.8"/>
<rect x="231" y="224.8" class="st4" width="9.8" height="9.8"/>
<rect x="231" y="215" class="st4" width="9.8" height="9.8"/>
<rect x="231" y="205.2" class="st4" width="9.8" height="9.8"/>
<rect x="231" y="195.4" class="st4" width="9.8" height="9.8"/>
<rect x="231" y="185.6" class="st6" width="9.8" height="9.8"/>
<rect x="231" y="175.8" class="st6" width="9.8" height="9.8"/>
<rect x="231" y="166" class="st4" width="9.8" height="9.8"/>
<rect x="221.2" y="273.8" class="st3" width="9.8" height="9.8"/>
<rect x="221.2" y="264" class="st3" width="9.8" height="9.8"/>
<rect x="221.2" y="254.2" class="st10" width="9.8" height="9.8"/>
<rect x="221.2" y="244.4" class="st4" width="9.8" height="9.8"/>
<rect x="221.2" y="234.6" class="st4" width="9.8" height="9.8"/>
<rect x="221.2" y="224.8" class="st4" width="9.8" height="9.8"/>
<rect x="221.2" y="215" class="st4" width="9.8" height="9.8"/>
<rect x="221.2" y="205.2" class="st4" width="9.8" height="9.8"/>
<rect x="221.2" y="195.4" class="st4" width="9.8" height="9.8"/>
<rect x="221.2" y="185.6" class="st4" width="9.8" height="9.8"/>
<rect x="221.2" y="175.8" class="st4" width="9.8" height="9.8"/>
<rect x="211.4" y="273.8" class="st3" width="9.8" height="9.8"/>
<rect x="211.4" y="264" class="st3" width="9.8" height="9.8"/>
<rect x="211.4" y="254.2" class="st10" width="9.8" height="9.8"/>
<rect x="211.4" y="244.4" class="st10" width="9.8" height="9.8"/>
<rect x="211.4" y="234.6" class="st10" width="9.8" height="9.8"/>
<rect x="211.4" y="224.8" class="st10" width="9.8" height="9.8"/>
<rect x="211.4" y="215" class="st10" width="9.8" height="9.8"/>
<rect x="211.4" y="205.2" class="st10" width="9.8" height="9.8"/>
<rect x="211.4" y="195.4" class="st10" width="9.8" height="9.8"/>
</svg>
