<?xml version="1.0" encoding="utf-8"?>
<!-- Generator: Adobe Illustrator 21.0.0, SVG Export Plug-In . SVG Version: 6.00 Build 0)  -->
<svg version="1.1" id="Layer_1" xmlns="http://www.w3.org/2000/svg" xmlns:xlink="http://www.w3.org/1999/xlink" x="0px" y="0px"
	 viewBox="0 0 300 150" style="enable-background:new 0 0 300 150;" xml:space="preserve">
<style type="text/css">
	.st0{fill:#FFFFFF;}
</style>
<g>
	<path class="st0" d="M49.5,53.5h2.4v15h-2.4V53.5z"/>
	<path class="st0" d="M53.6,53.5h3l2.3,9h0v-9H61v15h-2.4l-2.8-11h0v11h-2.1V53.5z"/>
	<path class="st0" d="M68,55.6h-2.5v-2.1h7.3v2.1h-2.5v12.9H68V55.6z"/>
	<path class="st0" d="M74,53.5h2.4v6.1h2.5v-6.1h2.4v15h-2.4v-6.8h-2.5v6.8H74V53.5z"/>
	<path class="st0" d="M83,53.5h6.4v2.1h-4.1v4h3.2v2.1h-3.2v4.6h4.1v2.1H83V53.5z"/>
	<path class="st0" d="M94.2,53.5h6.4v2.1h-4.1v4h3.2v2.1h-3.2v4.6h4.1v2.1h-6.4V53.5z"/>
	<path class="st0" d="M102,53.5h3l2.3,9h0v-9h2.1v15H107l-2.8-11h0v11H102V53.5z"/>
	<path class="st0" d="M111.1,53.5h3.6c1.2,0,2.1,0.3,2.6,0.9s0.9,1.6,0.9,2.8v7.6c0,1.2-0.3,2.1-0.9,2.8s-1.5,0.9-2.6,0.9h-3.6V53.5
		z M114.7,66.4c0.4,0,0.7-0.1,0.9-0.3c0.2-0.2,0.3-0.6,0.3-1.1v-7.8c0-0.5-0.1-0.9-0.3-1.1c-0.2-0.2-0.5-0.3-0.9-0.3h-1.2v10.7
		H114.7z"/>
	<path class="st0" d="M120.5,68.5h-0.8v-2.3h2.3v2l-1.2,2.8h-1.1L120.5,68.5z"/>
	<path class="st0" d="M129.3,62.1l-2.9-8.6h2.5l1.6,5.5h0l1.6-5.5h2.3l-2.9,8.6v6.4h-2.4V62.1z"/>
	<path class="st0" d="M136,67.7c-0.6-0.7-0.9-1.6-0.9-2.8v-7.9c0-1.2,0.3-2.1,0.9-2.8c0.6-0.7,1.5-1,2.7-1s2,0.3,2.7,1
		s0.9,1.6,0.9,2.8v7.9c0,1.2-0.3,2.1-0.9,2.8s-1.5,1-2.7,1S136.6,68.4,136,67.7z M139.9,65.1v-8.2c0-1-0.4-1.5-1.2-1.5
		s-1.2,0.5-1.2,1.5v8.2c0,1,0.4,1.5,1.2,1.5S139.9,66.1,139.9,65.1z"/>
	<path class="st0" d="M144.6,67.7c-0.6-0.7-0.9-1.6-0.9-2.8V53.5h2.4v11.6c0,0.5,0.1,0.9,0.3,1.1c0.2,0.2,0.5,0.3,0.9,0.3
		s0.7-0.1,0.9-0.3c0.2-0.2,0.3-0.6,0.3-1.1V53.5h2.3v11.4c0,1.2-0.3,2.1-0.9,2.8s-1.5,1-2.6,1C146.1,68.7,145.2,68.4,144.6,67.7z"/>
	<path class="st0" d="M157.7,53.5h3.2l2.4,15h-2.4l-0.4-3v0h-2.7l-0.4,2.9h-2.2L157.7,53.5z M160.2,63.5l-1-7.4h0l-1,7.4H160.2z"/>
	<path class="st0" d="M164.4,53.5h3.5c1.2,0,2.1,0.3,2.7,0.8c0.6,0.6,0.8,1.4,0.8,2.6v0.9c0,1.6-0.5,2.5-1.5,3v0
		c0.6,0.2,1,0.5,1.2,1.1c0.2,0.5,0.4,1.2,0.4,2.1v2.6c0,0.4,0,0.8,0,1c0,0.3,0.1,0.5,0.2,0.8h-2.4c-0.1-0.2-0.1-0.5-0.2-0.7
		c0-0.2,0-0.6,0-1.2v-2.7c0-0.7-0.1-1.2-0.3-1.4c-0.2-0.3-0.6-0.4-1.1-0.4h-0.8v6.4h-2.4V53.5z M167.7,59.9c0.5,0,0.8-0.1,1.1-0.4
		c0.2-0.2,0.4-0.7,0.4-1.2v-1.2c0-0.5-0.1-0.9-0.3-1.2c-0.2-0.2-0.5-0.4-0.9-0.4h-1.1v4.3H167.7z"/>
	<path class="st0" d="M173.1,53.5h6.4v2.1h-4.1v4h3.2v2.1h-3.2v4.6h4.1v2.1h-6.4V53.5z"/>
	<path class="st0" d="M186.4,62.1l-2.8-8.6h2.5l1.6,5.5h0l1.6-5.5h2.3l-2.9,8.6v6.4h-2.4V62.1z"/>
	<path class="st0" d="M193.1,67.7c-0.6-0.7-0.9-1.6-0.9-2.8v-7.9c0-1.2,0.3-2.1,0.9-2.8c0.6-0.7,1.5-1,2.7-1s2,0.3,2.7,1
		c0.6,0.7,0.9,1.6,0.9,2.8v7.9c0,1.2-0.3,2.1-0.9,2.8c-0.6,0.7-1.5,1-2.7,1S193.7,68.4,193.1,67.7z M197,65.1v-8.2
		c0-1-0.4-1.5-1.2-1.5s-1.2,0.5-1.2,1.5v8.2c0,1,0.4,1.5,1.2,1.5S197,66.1,197,65.1z"/>
	<path class="st0" d="M201.7,67.7c-0.6-0.7-0.9-1.6-0.9-2.8V53.5h2.4v11.6c0,0.5,0.1,0.9,0.3,1.1c0.2,0.2,0.5,0.3,0.9,0.3
		c0.4,0,0.7-0.1,0.9-0.3c0.2-0.2,0.3-0.6,0.3-1.1V53.5h2.3v11.4c0,1.2-0.3,2.1-0.9,2.8s-1.5,1-2.6,1
		C203.2,68.7,202.3,68.4,201.7,67.7z"/>
	<path class="st0" d="M209.5,53.5h3.5c1.2,0,2.1,0.3,2.7,0.8c0.6,0.6,0.8,1.4,0.8,2.6v0.9c0,1.6-0.5,2.5-1.5,3v0
		c0.6,0.2,1,0.5,1.2,1.1c0.2,0.5,0.4,1.2,0.4,2.1v2.6c0,0.4,0,0.8,0,1c0,0.3,0.1,0.5,0.2,0.8h-2.4c-0.1-0.2-0.1-0.5-0.2-0.7
		c0-0.2,0-0.6,0-1.2v-2.7c0-0.7-0.1-1.2-0.3-1.4c-0.2-0.3-0.6-0.4-1.1-0.4h-0.8v6.4h-2.4V53.5z M212.7,59.9c0.5,0,0.8-0.1,1.1-0.4
		c0.2-0.2,0.4-0.7,0.4-1.2v-1.2c0-0.5-0.1-0.9-0.3-1.2c-0.2-0.2-0.5-0.4-0.9-0.4h-1.1v4.3H212.7z"/>
	<path class="st0" d="M222.3,67.7c-0.6-0.7-0.9-1.6-0.9-2.8v-7.9c0-1.2,0.3-2.1,0.9-2.8c0.6-0.7,1.5-1,2.7-1s2,0.3,2.7,1
		c0.6,0.7,0.9,1.6,0.9,2.8v7.9c0,1.2-0.3,2.1-0.9,2.8c-0.6,0.7-1.5,1-2.7,1S223,68.4,222.3,67.7z M226.2,65.1v-8.2
		c0-1-0.4-1.5-1.2-1.5s-1.2,0.5-1.2,1.5v8.2c0,1,0.4,1.5,1.2,1.5S226.2,66.1,226.2,65.1z"/>
	<path class="st0" d="M229.6,53.5h2.3l1.1,11.5h0l1.1-11.5h2.6l1.1,11.5h0l1.1-11.5h2l-1.5,15h-2.9l-1.1-10.1h0l-1.1,10.1h-3.1
		L229.6,53.5z"/>
	<path class="st0" d="M242.1,53.5h3l2.3,9h0v-9h2.1v15h-2.4l-2.8-11h0v11h-2.1V53.5z"/>
	<path class="st0" d="M103.3,79.2h2.3l1.1,11.5h0l1.1-11.5h2.6l1.1,11.5h0l1.1-11.5h2l-1.5,15h-2.9l-1.1-10.1h0L108,94.2h-3.1
		L103.3,79.2z"/>
	<path class="st0" d="M116.5,93.4c-0.6-0.7-0.9-1.6-0.9-2.8v-7.9c0-1.2,0.3-2.1,0.9-2.8c0.6-0.7,1.5-1,2.7-1s2,0.3,2.7,1
		s0.9,1.6,0.9,2.8v7.9c0,1.2-0.3,2.1-0.9,2.8s-1.5,1-2.7,1S117.2,94.1,116.5,93.4z M120.4,90.8v-8.2c0-1-0.4-1.5-1.2-1.5
		s-1.2,0.5-1.2,1.5v8.2c0,1,0.4,1.5,1.2,1.5S120.4,91.8,120.4,90.8z"/>
	<path class="st0" d="M124.4,79.2h3.5c1.2,0,2.1,0.3,2.7,0.8c0.6,0.6,0.8,1.4,0.8,2.6v0.9c0,1.6-0.5,2.5-1.5,3v0
		c0.6,0.2,1,0.5,1.2,1s0.4,1.2,0.4,2.1v2.6c0,0.4,0,0.8,0,1s0.1,0.5,0.2,0.8h-2.4c-0.1-0.2-0.1-0.5-0.2-0.7c0-0.2,0-0.6,0-1.2v-2.7
		c0-0.7-0.1-1.2-0.3-1.4c-0.2-0.3-0.6-0.4-1.1-0.4h-0.8v6.4h-2.4V79.2z M127.6,85.6c0.5,0,0.8-0.1,1.1-0.4s0.4-0.7,0.4-1.2v-1.2
		c0-0.5-0.1-0.9-0.3-1.2c-0.2-0.2-0.5-0.4-0.9-0.4h-1.1v4.3H127.6z"/>
	<path class="st0" d="M133.5,93.5c-0.6-0.7-0.9-1.6-0.9-2.8v-0.9h2.2v1c0,1,0.4,1.5,1.2,1.5c0.4,0,0.7-0.1,0.9-0.4
		c0.2-0.2,0.3-0.6,0.3-1.1c0-0.6-0.1-1.2-0.4-1.7c-0.3-0.5-0.8-1.1-1.6-1.7c-1-0.9-1.7-1.6-2-2.3c-0.4-0.7-0.6-1.5-0.6-2.3
		c0-1.2,0.3-2.1,0.9-2.8s1.5-1,2.6-1c1.1,0,2,0.3,2.6,1s0.9,1.6,0.9,2.8v0.6h-2.2v-0.8c0-0.5-0.1-0.9-0.3-1.1
		c-0.2-0.2-0.5-0.4-0.9-0.4c-0.8,0-1.2,0.5-1.2,1.4c0,0.5,0.1,1,0.4,1.5c0.3,0.5,0.8,1,1.6,1.7c1,0.9,1.7,1.6,2,2.3s0.6,1.5,0.6,2.5
		c0,1.2-0.3,2.2-0.9,2.8c-0.6,0.7-1.5,1-2.6,1C134.9,94.4,134.1,94.1,133.5,93.5z"/>
	<path class="st0" d="M142.8,81.4h-2.5v-2.1h7.3v2.1h-2.5v12.9h-2.4V81.4z"/>
	<path class="st0" d="M152.2,79.2h6.4v2.1h-4.1v4h3.2v2.1h-3.2v4.6h4.1v2.1h-6.4V79.2z"/>
	<path class="st0" d="M160,79.2h3l2.3,9h0v-9h2.1v15H165l-2.8-11h0v11H160V79.2z"/>
	<path class="st0" d="M169.1,79.2h6.4v2.1h-4.1v4h3.2v2.1h-3.2v4.6h4.1v2.1h-6.4V79.2z"/>
	<path class="st0" d="M176.9,79.2h3.4l1.5,10.7h0l1.5-10.7h3.4v15h-2.2V82.9h0l-1.7,11.4h-2L179,82.9h0v11.4h-2.1V79.2z"/>
	<path class="st0" d="M190.6,87.8l-2.9-8.6h2.5l1.6,5.5h0l1.6-5.5h2.3l-2.9,8.6v6.4h-2.4V87.8z"/>
</g>
</svg>
