<?xml version="1.0" encoding="utf-8"?>
<!-- Generator: Adobe Illustrator 21.0.0, SVG Export Plug-In . SVG Version: 6.00 Build 0)  -->
<svg version="1.1" id="Layer_1" xmlns="http://www.w3.org/2000/svg" xmlns:xlink="http://www.w3.org/1999/xlink" x="0px" y="0px"
	 viewBox="0 0 450 150" style="enable-background:new 0 0 450 150;" xml:space="preserve">
<style type="text/css">
	.st0{fill:#FFFFFF;}
	.st1{fill:#FFFDFD;}
</style>
<g>
	
		<image style="overflow:visible;" width="300" height="273" xlink:href="../Sprites/Objects/Box.png"  transform="matrix(0.1463 0 0 0.1463 261 63)">
	</image>
	<g>
		<path class="st0" d="M82.3,36.1h2.3l1.1,11.8h0l1.1-11.8h2.6l1.1,11.8h0l1.1-11.8h2.1l-1.6,15.4h-3l-1.1-10.4h0l-1.1,10.4h-3.2
			L82.3,36.1z"/>
		<path class="st0" d="M95.1,36.1h2.4v15.4h-2.4V36.1z"/>
		<path class="st0" d="M101.2,38.3h-2.5v-2.2h7.5v2.2h-2.5v13.2h-2.4V38.3z"/>
		<path class="st0" d="M107.4,36.1h2.4v6.3h2.6v-6.3h2.4v15.4h-2.4v-6.9h-2.6v6.9h-2.4V36.1z"/>
		<path class="st0" d="M122,38.3h-2.5v-2.2h7.5v2.2h-2.5v13.2H122V38.3z"/>
		<path class="st0" d="M128.1,36.1h2.4v6.3h2.6v-6.3h2.4v15.4h-2.4v-6.9h-2.6v6.9h-2.4V36.1z"/>
		<path class="st0" d="M137.3,36.1h6.6v2.2h-4.2v4.1h3.3v2.2h-3.3v4.7h4.2v2.2h-6.6V36.1z"/>
		<path class="st0" d="M148.8,36.1h2.4v13.2h4v2.2h-6.4V36.1z"/>
		<path class="st0" d="M156.4,36.1h6.6v2.2h-4.2v4.1h3.3v2.2h-3.3v4.7h4.2v2.2h-6.6V36.1z"/>
		<path class="st0" d="M163.7,36.1h2.4l1.6,11.9h0l1.6-11.9h2.2l-2.3,15.4H166L163.7,36.1z"/>
		<path class="st0" d="M172.7,36.1h2.4v15.4h-2.4V36.1z"/>
		<path class="st0" d="M178.8,38.3h-2.5v-2.2h7.5v2.2h-2.5v13.2h-2.4V38.3z"/>
		<path class="st0" d="M185.8,36.1h3.3l2.5,15.4h-2.4l-0.4-3.1v0H186l-0.4,3h-2.2L185.8,36.1z M188.4,46.4l-1.1-7.6h0l-1.1,7.6
			H188.4z"/>
		<path class="st0" d="M193.6,38.3h-2.5v-2.2h7.5v2.2H196v13.2h-2.4V38.3z"/>
		<path class="st0" d="M199.7,36.1h2.4v15.4h-2.4V36.1z"/>
		<path class="st0" d="M204.7,50.7c-0.6-0.7-0.9-1.6-0.9-2.9v-8.1c0-1.2,0.3-2.2,0.9-2.9c0.6-0.7,1.5-1,2.7-1c1.2,0,2.1,0.3,2.7,1
			c0.6,0.7,0.9,1.6,0.9,2.9v8.1c0,1.2-0.3,2.2-0.9,2.9c-0.6,0.7-1.5,1-2.7,1C206.3,51.7,205.3,51.4,204.7,50.7z M208.7,48v-8.4
			c0-1-0.4-1.5-1.3-1.5c-0.8,0-1.3,0.5-1.3,1.5V48c0,1,0.4,1.5,1.3,1.5C208.3,49.5,208.7,49,208.7,48z"/>
		<path class="st0" d="M212.7,36.1h3l2.4,9.2h0v-9.2h2.2v15.4h-2.5l-2.9-11.2h0v11.2h-2.2V36.1z"/>
		<path class="st0" d="M226.1,50.7c-0.6-0.7-0.9-1.6-0.9-2.9V47h2.3V48c0,1,0.4,1.5,1.3,1.5c0.4,0,0.7-0.1,0.9-0.4
			c0.2-0.2,0.3-0.6,0.3-1.2c0-0.6-0.1-1.2-0.4-1.7c-0.3-0.5-0.8-1.1-1.6-1.8c-1-0.9-1.7-1.7-2.1-2.4s-0.6-1.5-0.6-2.4
			c0-1.2,0.3-2.2,0.9-2.8c0.6-0.7,1.5-1,2.7-1c1.2,0,2,0.3,2.6,1s0.9,1.6,0.9,2.9v0.6h-2.3v-0.8c0-0.5-0.1-0.9-0.3-1.2
			c-0.2-0.2-0.5-0.4-0.9-0.4c-0.8,0-1.2,0.5-1.2,1.5c0,0.6,0.2,1.1,0.5,1.6c0.3,0.5,0.8,1.1,1.6,1.8c1,0.9,1.7,1.7,2.1,2.4
			s0.6,1.6,0.6,2.5c0,1.3-0.3,2.2-0.9,2.9c-0.6,0.7-1.5,1-2.7,1C227.6,51.7,226.7,51.4,226.1,50.7z"/>
		<path class="st0" d="M235.7,38.3h-2.5v-2.2h7.5v2.2h-2.5v13.2h-2.4V38.3z"/>
		<path class="st0" d="M242.5,50.7c-0.6-0.7-0.9-1.6-0.9-2.9v-8.1c0-1.2,0.3-2.2,0.9-2.9c0.6-0.7,1.5-1,2.7-1s2.1,0.3,2.7,1
			c0.6,0.7,0.9,1.6,0.9,2.9v8.1c0,1.2-0.3,2.2-0.9,2.9c-0.6,0.7-1.5,1-2.7,1S243.1,51.4,242.5,50.7z M246.5,48v-8.4
			c0-1-0.4-1.5-1.3-1.5s-1.3,0.5-1.3,1.5V48c0,1,0.4,1.5,1.3,1.5S246.5,49,246.5,48z"/>
		<path class="st0" d="M250.5,36.1h3l2.4,9.2h0v-9.2h2.2v15.4h-2.5l-2.9-11.2h0v11.2h-2.2V36.1z"/>
		<path class="st0" d="M259.9,36.1h6.6v2.2h-4.2v4.1h3.3v2.2h-3.3v4.7h4.2v2.2h-6.6V36.1z"/>
		<path class="st0" d="M271.8,50.7c-0.6-0.7-0.9-1.6-0.9-2.9V47h2.3V48c0,1,0.4,1.5,1.3,1.5c0.4,0,0.7-0.1,0.9-0.4
			c0.2-0.2,0.3-0.6,0.3-1.2c0-0.6-0.1-1.2-0.4-1.7c-0.3-0.5-0.8-1.1-1.6-1.8c-1-0.9-1.7-1.7-2.1-2.4c-0.4-0.7-0.6-1.5-0.6-2.4
			c0-1.2,0.3-2.2,0.9-2.8c0.6-0.7,1.5-1,2.7-1c1.2,0,2,0.3,2.6,1c0.6,0.7,0.9,1.6,0.9,2.9v0.6h-2.3v-0.8c0-0.5-0.1-0.9-0.3-1.2
			s-0.5-0.4-0.9-0.4c-0.8,0-1.2,0.5-1.2,1.5c0,0.6,0.2,1.1,0.5,1.6c0.3,0.5,0.8,1.1,1.6,1.8c1,0.9,1.7,1.7,2.1,2.4s0.6,1.6,0.6,2.5
			c0,1.3-0.3,2.2-0.9,2.9c-0.6,0.7-1.5,1-2.7,1C273.3,51.7,272.4,51.4,271.8,50.7z"/>
		<path class="st0" d="M279.5,36.1h6.6v2.2H282v4.1h3.3v2.2H282v4.7h4.2v2.2h-6.6V36.1z"/>
		<path class="st0" d="M287.5,36.1h2.4v13.2h4v2.2h-6.4V36.1z"/>
		<path class="st0" d="M295.1,36.1h6.6v2.2h-4.2v4.1h3.3v2.2h-3.3v4.7h4.2v2.2h-6.6V36.1z"/>
		<path class="st0" d="M303.8,50.7c-0.6-0.7-0.9-1.6-0.9-2.8v-8.3c0-1.2,0.3-2.1,0.9-2.8s1.5-1,2.6-1s2,0.3,2.6,1s0.9,1.6,0.9,2.8
			v1.6h-2.3v-1.8c0-1-0.4-1.4-1.2-1.4c-0.8,0-1.2,0.5-1.2,1.4v8.6c0,0.9,0.4,1.4,1.2,1.4c0.8,0,1.2-0.5,1.2-1.4v-2.4h2.3v2.2
			c0,1.2-0.3,2.1-0.9,2.8s-1.5,1-2.6,1S304.4,51.4,303.8,50.7z"/>
		<path class="st0" d="M313.3,38.3h-2.5v-2.2h7.5v2.2h-2.5v13.2h-2.4V38.3z"/>
		<path class="st0" d="M319.4,36.1h6.6v2.2h-4.2v4.1h3.3v2.2h-3.3v4.7h4.2v2.2h-6.6V36.1z"/>
		<path class="st0" d="M327.4,36.1h3.7c1.2,0,2.1,0.3,2.7,1c0.6,0.6,0.9,1.6,0.9,2.8v7.8c0,1.2-0.3,2.2-0.9,2.8
			c-0.6,0.6-1.5,1-2.7,1h-3.7V36.1z M331.1,49.3c0.4,0,0.7-0.1,0.9-0.4c0.2-0.2,0.3-0.6,0.3-1.1v-8c0-0.5-0.1-0.9-0.3-1.1
			c-0.2-0.2-0.5-0.4-0.9-0.4h-1.2v11H331.1z"/>
	</g>
	<path class="st0" d="M165,71.5V92c0,1.8,0.4,5.2,2.9,8.1s6.2,4.4,11.2,4.4s8.7-1.5,11.2-4.4s2.9-6.3,2.9-8.1V71.5
		c0-1.8-0.4-5.2-2.9-8.1c-2.6-2.9-6.4-4.4-11.3-4.4s-8.7,1.5-11.2,4.4S165,69.7,165,71.5z M177.1,73v-4c0-1,0.8-1.9,1.9-1.9
		s1.9,0.8,1.9,1.9v4c0,1-0.8,1.9-1.9,1.9S177.1,74,177.1,73z M166.4,71.5c0-1.8,0.6-10.6,11.8-11v5.3c-1.5,0.3-2.6,1.7-2.6,3.2v4
		c0,1.6,1.1,2.9,2.6,3.2v6c0,0.4,0.3,0.7,0.7,0.7s0.7-0.3,0.7-0.7v-6c1.5-0.3,2.6-1.7,2.6-3.2v-4c0-1.6-1.1-2.9-2.6-3.2v-5.3
		c11.2,0.4,11.8,9.2,11.8,11V92c0,1.8-0.6,11-12.6,11s-12.6-9.2-12.6-11V71.5H166.4z"/>
	<path class="st0" d="M192,83h-13.3v-5.9l2.9-2.8l-0.4-6.1l-2.5-2.2c0,0-0.2-2.1-0.2-2.3c0-0.2,0.2-3.4,0.2-3.4l6.6,0.7l5.1,3.9
		l1.5,4.8l0.6,7.8L192,83z"/>
	<g>
		<path class="st1" d="M121.9,73.1h2.4v6.3h2.6v-6.3h2.4v15.4h-2.4v-6.9h-2.6v6.9h-2.4V73.1z"/>
		<path class="st1" d="M131.9,87.7c-0.6-0.7-0.9-1.6-0.9-2.9v-8.1c0-1.2,0.3-2.2,0.9-2.9c0.6-0.7,1.5-1,2.7-1c1.2,0,2.1,0.3,2.7,1
			c0.6,0.7,0.9,1.6,0.9,2.9v8.1c0,1.2-0.3,2.2-0.9,2.9c-0.6,0.7-1.5,1-2.7,1C133.4,88.7,132.5,88.4,131.9,87.7z M135.9,85v-8.4
			c0-1-0.4-1.5-1.3-1.5c-0.8,0-1.3,0.5-1.3,1.5V85c0,1,0.4,1.5,1.3,1.5C135.5,86.5,135.9,86,135.9,85z"/>
		<path class="st1" d="M139.9,73.1h2.4v13.2h4v2.2h-6.4V73.1z"/>
		<path class="st1" d="M147.5,73.1h3.7c1.2,0,2.1,0.3,2.7,1c0.6,0.6,0.9,1.6,0.9,2.8v7.8c0,1.2-0.3,2.2-0.9,2.8
			c-0.6,0.6-1.5,1-2.7,1h-3.7V73.1z M151.1,86.3c0.4,0,0.7-0.1,0.9-0.4s0.3-0.6,0.3-1.1v-8c0-0.5-0.1-0.9-0.3-1.1
			c-0.2-0.2-0.5-0.4-0.9-0.4h-1.2v11H151.1z"/>
	</g>
	<g>
		<path class="st0" d="M204.7,87.7c-0.6-0.7-0.9-1.6-0.9-2.9v-8.1c0-1.2,0.3-2.2,0.9-2.9c0.6-0.7,1.5-1,2.7-1c1.2,0,2.1,0.3,2.7,1
			c0.6,0.7,0.9,1.6,0.9,2.9v8.1c0,1.2-0.3,2.2-0.9,2.9c-0.6,0.7-1.5,1-2.7,1C206.2,88.7,205.3,88.4,204.7,87.7z M208.6,85v-8.4
			c0-1-0.4-1.5-1.3-1.5c-0.8,0-1.3,0.5-1.3,1.5V85c0,1,0.4,1.5,1.3,1.5C208.2,86.5,208.6,86,208.6,85z"/>
		<path class="st0" d="M212.7,73.1h3l2.4,9.2h0v-9.2h2.2v15.4h-2.5l-2.9-11.2h0v11.2h-2.2V73.1z"/>
		<path class="st0" d="M227.5,75.3h-2.5v-2.2h7.5v2.2h-2.5v13.2h-2.4V75.3z"/>
		<path class="st0" d="M233.6,73.1h2.4v6.3h2.6v-6.3h2.4v15.4h-2.4v-6.9H236v6.9h-2.4V73.1z"/>
		<path class="st0" d="M242.8,73.1h6.6v2.2h-4.2v4.1h3.3v2.2h-3.3v4.7h4.2v2.2h-6.6V73.1z"/>
	</g>
</g>
</svg>
