<?xml version="1.0" encoding="utf-8"?>
<!-- Generator: Adobe Illustrator 21.0.0, SVG Export Plug-In . SVG Version: 6.00 Build 0)  -->
<svg version="1.1" id="Layer_1" xmlns="http://www.w3.org/2000/svg" xmlns:xlink="http://www.w3.org/1999/xlink" x="0px" y="0px"
	 viewBox="0 0 450 150" style="enable-background:new 0 0 450 150;" xml:space="preserve">
<style type="text/css">
	.st0{fill:#F9F9F9;}
	.st1{fill:#FCFCFC;}
	.st2{font-family:'BebasNeue-Regular';}
	.st3{font-size:19.2414px;}
	.st4{fill:#FFFFFF;}
</style>
<g>
	<path class="st0" d="M139.3,62.2v20.5c0,1-0.8,1.8-1.8,1.8h-20.1c-1,0-1.8-0.8-1.8-1.8V62.2c0-1,0.8-1.8,1.8-1.8h20.1
		C138.5,60.4,139.3,61.2,139.3,62.2z M144,58.8v27.3c0,1.7-1.4,3.2-3.2,3.2h-26.6c-1.7,0-3.2-1.4-3.2-3.2V58.8
		c0-1.7,1.4-3.2,3.2-3.2h26.7C142.6,55.7,144,57.1,144,58.8z M140.6,62.2c0-1.7-1.3-3-3-3h-20.2c-1.7,0-3,1.3-3,3v20.5
		c0,1.7,1.3,3,3,3h20.1c1.7,0,3-1.3,3-3L140.6,62.2L140.6,62.2z"/>
</g>
<g>
	<path d="M126.8,69.3h-2v-1.4c0.6,0,1,0,1.3-0.1c0.3-0.1,0.6-0.3,0.8-0.5c0.2-0.2,0.4-0.5,0.5-1h1.3v12.5h-2V69.3z"/>
</g>
<g>
	<path class="st0" d="M188.3,62.2v20.5c0,1-0.8,1.8-1.8,1.8h-20.1c-1,0-1.8-0.8-1.8-1.8V62.2c0-1,0.8-1.8,1.8-1.8h20.1
		C187.5,60.4,188.3,61.2,188.3,62.2z M193,58.8v27.3c0,1.7-1.4,3.2-3.2,3.2h-26.6c-1.7,0-3.2-1.4-3.2-3.2V58.8
		c0-1.7,1.4-3.2,3.2-3.2h26.7C191.6,55.7,193,57.1,193,58.8z M189.6,62.2c0-1.7-1.3-3-3-3h-20.2c-1.7,0-3,1.3-3,3v20.5
		c0,1.7,1.3,3,3,3h20.1c1.7,0,3-1.3,3-3L189.6,62.2L189.6,62.2z"/>
</g>
<g>
	<path d="M173,77.4c0-0.9,0.1-1.7,0.4-2.3c0.3-0.6,0.8-1.3,1.5-2.1c0.7-0.8,1.2-1.4,1.5-2c0.3-0.5,0.4-1.1,0.4-1.7
		c0-0.5-0.1-0.9-0.3-1.1c-0.2-0.2-0.4-0.3-0.8-0.3c-0.7,0-1,0.4-1,1.2v1.3H173v-1.2c0-1,0.2-1.8,0.7-2.3c0.5-0.5,1.2-0.8,2.2-0.8
		c0.9,0,1.7,0.3,2.2,0.8c0.5,0.5,0.7,1.3,0.7,2.3c0,0.8-0.2,1.5-0.5,2.2c-0.4,0.7-1,1.6-1.9,2.5c-0.6,0.6-1,1.1-1.2,1.5
		c-0.2,0.4-0.3,0.8-0.3,1.2V77h3.7v1.8H173V77.4z"/>
</g>
<g>
	<path class="st1" d="M203.7,67.4h-2.2v-1.9h6.5v1.9h-2.2v11.5h-2.1V67.4z"/>
	<path class="st1" d="M209.6,78.2c-0.6-0.6-0.8-1.4-0.8-2.5v-7.1c0-1.1,0.3-1.9,0.8-2.5c0.6-0.6,1.3-0.9,2.4-0.9s1.8,0.3,2.4,0.9
		c0.6,0.6,0.8,1.4,0.8,2.5v7.1c0,1.1-0.3,1.9-0.8,2.5c-0.6,0.6-1.3,0.9-2.4,0.9S210.2,78.8,209.6,78.2z M213.1,75.9v-7.4
		c0-0.9-0.4-1.3-1.1-1.3c-0.7,0-1.1,0.4-1.1,1.3v7.4c0,0.9,0.4,1.3,1.1,1.3C212.8,77.2,213.1,76.8,213.1,75.9z"/>
	<path class="st1" d="M220.2,78.2c-0.5-0.6-0.8-1.4-0.8-2.5V75h2v0.9c0,0.9,0.4,1.3,1.1,1.3c0.4,0,0.6-0.1,0.8-0.3
		c0.2-0.2,0.3-0.6,0.3-1c0-0.6-0.1-1.1-0.4-1.5c-0.3-0.4-0.7-0.9-1.4-1.5c-0.9-0.8-1.5-1.5-1.8-2.1c-0.3-0.6-0.5-1.3-0.5-2.1
		c0-1.1,0.3-1.9,0.8-2.5c0.5-0.6,1.3-0.9,2.3-0.9c1,0,1.8,0.3,2.3,0.9c0.5,0.6,0.8,1.4,0.8,2.5v0.6h-2v-0.7c0-0.5-0.1-0.8-0.3-1
		c-0.2-0.2-0.4-0.3-0.8-0.3c-0.7,0-1.1,0.4-1.1,1.3c0,0.5,0.1,0.9,0.4,1.4s0.7,0.9,1.4,1.5c0.9,0.8,1.5,1.5,1.8,2.1
		c0.3,0.6,0.5,1.4,0.5,2.2c0,1.1-0.3,2-0.8,2.5c-0.5,0.6-1.3,0.9-2.4,0.9C221.5,79.1,220.7,78.8,220.2,78.2z"/>
	<path class="st1" d="M226.4,65.5h2l0.9,10.4h0l1-10.4h2.3l1,10.4h0l0.9-10.4h1.8l-1.4,13.5h-2.6l-1-9.1h0l-1,9.1h-2.8L226.4,65.5z"
		/>
	<path class="st1" d="M237.6,65.5h2.1v13.5h-2.1V65.5z"/>
	<path class="st1" d="M243,67.4h-2.2v-1.9h6.5v1.9h-2.2v11.5H243V67.4z"/>
	<path class="st1" d="M248.9,78.3c-0.5-0.6-0.8-1.4-0.8-2.4v-7.2c0-1.1,0.3-1.9,0.8-2.4c0.5-0.6,1.3-0.9,2.3-0.9
		c1,0,1.8,0.3,2.3,0.9s0.8,1.4,0.8,2.4V70h-2v-1.6c0-0.8-0.4-1.3-1.1-1.3c-0.7,0-1.1,0.4-1.1,1.3V76c0,0.8,0.4,1.2,1.1,1.2
		c0.7,0,1.1-0.4,1.1-1.2v-2.1h2v1.9c0,1.1-0.3,1.9-0.8,2.4s-1.3,0.9-2.3,0.9C250.2,79.1,249.4,78.8,248.9,78.3z"/>
	<path class="st1" d="M255.6,65.5h2.1v5.5h2.3v-5.5h2.1v13.5H260v-6.1h-2.3v6.1h-2.1V65.5z"/>
	<path class="st1" d="M266.8,65.5h3.2c1.1,0,1.9,0.3,2.4,0.8c0.5,0.5,0.8,1.3,0.8,2.3v0.5c0,0.7-0.1,1.3-0.3,1.7
		c-0.2,0.4-0.6,0.8-1,0.9v0c1.1,0.4,1.6,1.3,1.6,2.8v1.2c0,1-0.3,1.8-0.8,2.4c-0.5,0.5-1.3,0.8-2.4,0.8h-3.3V65.5z M269.7,70.9
		c0.4,0,0.7-0.1,1-0.3c0.2-0.2,0.3-0.6,0.3-1.1v-0.8c0-0.5-0.1-0.8-0.3-1.1c-0.2-0.2-0.4-0.3-0.8-0.3h-1v3.6H269.7z M270.1,77
		c0.4,0,0.6-0.1,0.8-0.3c0.2-0.2,0.3-0.5,0.3-1v-1.2c0-0.6-0.1-1-0.3-1.3c-0.2-0.2-0.6-0.4-1-0.4h-0.9V77H270.1z"/>
	<path class="st1" d="M274.5,65.5h5.8v1.9h-3.7v3.6h2.9v1.9h-2.9V77h3.7v1.9h-5.8V65.5z"/>
	<path class="st1" d="M283.2,67.4H281v-1.9h6.5v1.9h-2.2v11.5h-2.1V67.4z"/>
	<path class="st1" d="M288.1,65.5h2l0.9,10.4h0l1-10.4h2.3l1,10.4h0l0.9-10.4h1.8l-1.4,13.5h-2.6l-1-9.1h0l-1,9.1h-2.8L288.1,65.5z"
		/>
	<path class="st1" d="M299.3,65.5h5.8v1.9h-3.7v3.6h2.9v1.9h-2.9V77h3.7v1.9h-5.8V65.5z"/>
	<path class="st1" d="M306.3,65.5h5.8v1.9h-3.7v3.6h2.9v1.9h-2.9V77h3.7v1.9h-5.8V65.5z"/>
	<path class="st1" d="M313.3,65.5h2.7l2.1,8.1h0v-8.1h1.9v13.5h-2.2l-2.5-9.8h0v9.8h-1.9V65.5z"/>
	<path class="st1" d="M324.6,65.5h3l1.3,9.6h0l1.3-9.6h3v13.5h-2V68.7h0l-1.5,10.2H328l-1.5-10.2h0v10.2h-1.8V65.5z"/>
	<path class="st1" d="M336.6,65.5h2.9l2.2,13.5h-2.1l-0.4-2.7v0h-2.4l-0.4,2.6h-2L336.6,65.5z M338.9,74.5l-0.9-6.7h0l-0.9,6.7
		H338.9z"/>
	<path class="st1" d="M343.3,78.2c-0.5-0.6-0.8-1.4-0.8-2.5v-7.1c0-1.1,0.3-1.9,0.8-2.5c0.5-0.6,1.3-0.9,2.3-0.9
		c1,0,1.8,0.3,2.3,0.9c0.5,0.6,0.8,1.4,0.8,2.5v1.2h-2v-1.3c0-0.9-0.4-1.3-1.1-1.3c-0.7,0-1.1,0.4-1.1,1.3v7.4
		c0,0.9,0.4,1.3,1.1,1.3c0.7,0,1.1-0.4,1.1-1.3v-2.6h-1.1v-1.9h3.1v4.4c0,1.1-0.3,1.9-0.8,2.5c-0.5,0.6-1.3,0.9-2.3,0.9
		C344.6,79.1,343.8,78.8,343.3,78.2z"/>
	<path class="st1" d="M350.1,65.5h2.1v13.5h-2.1V65.5z"/>
	<path class="st1" d="M354.5,78.3c-0.5-0.6-0.8-1.4-0.8-2.4v-7.2c0-1.1,0.3-1.9,0.8-2.4c0.5-0.6,1.3-0.9,2.3-0.9
		c1,0,1.8,0.3,2.3,0.9s0.8,1.4,0.8,2.4V70h-2v-1.6c0-0.8-0.4-1.3-1.1-1.3c-0.7,0-1.1,0.4-1.1,1.3V76c0,0.8,0.4,1.2,1.1,1.2
		c0.7,0,1.1-0.4,1.1-1.2v-2.1h2v1.9c0,1.1-0.3,1.9-0.8,2.4s-1.3,0.9-2.3,0.9C355.8,79.1,355,78.8,354.5,78.3z"/>
	<path class="st1" d="M362.8,65.5h2.9l2.2,13.5h-2.1l-0.4-2.7v0H363l-0.4,2.6h-2L362.8,65.5z M365.1,74.5l-0.9-6.7h0l-0.9,6.7H365.1
		z"/>
	<path class="st1" d="M368.9,65.5h2.1V77h3.5v1.9h-5.6V65.5z"/>
	<path class="st1" d="M379,78.2c-0.5-0.6-0.8-1.4-0.8-2.5V75h2v0.9c0,0.9,0.4,1.3,1.1,1.3c0.4,0,0.6-0.1,0.8-0.3
		c0.2-0.2,0.3-0.6,0.3-1c0-0.6-0.1-1.1-0.4-1.5c-0.3-0.4-0.7-0.9-1.4-1.5c-0.9-0.8-1.5-1.5-1.8-2.1c-0.3-0.6-0.5-1.3-0.5-2.1
		c0-1.1,0.3-1.9,0.8-2.5c0.5-0.6,1.3-0.9,2.3-0.9c1,0,1.8,0.3,2.3,0.9c0.5,0.6,0.8,1.4,0.8,2.5v0.6h-2v-0.7c0-0.5-0.1-0.8-0.3-1
		c-0.2-0.2-0.4-0.3-0.8-0.3c-0.7,0-1.1,0.4-1.1,1.3c0,0.5,0.1,0.9,0.4,1.4s0.7,0.9,1.4,1.5c0.9,0.8,1.5,1.5,1.8,2.1
		c0.3,0.6,0.5,1.4,0.5,2.2c0,1.1-0.3,2-0.8,2.5c-0.5,0.6-1.3,0.9-2.4,0.9C380.3,79.1,379.6,78.8,379,78.2z"/>
	<path class="st1" d="M387.4,67.4h-2.2v-1.9h6.5v1.9h-2.2v11.5h-2.1V67.4z"/>
	<path class="st1" d="M393.4,78.2c-0.6-0.6-0.8-1.4-0.8-2.5v-7.1c0-1.1,0.3-1.9,0.8-2.5c0.6-0.6,1.3-0.9,2.4-0.9s1.8,0.3,2.4,0.9
		c0.6,0.6,0.8,1.4,0.8,2.5v7.1c0,1.1-0.3,1.9-0.8,2.5c-0.6,0.6-1.3,0.9-2.4,0.9S393.9,78.8,393.4,78.2z M396.9,75.9v-7.4
		c0-0.9-0.4-1.3-1.1-1.3c-0.7,0-1.1,0.4-1.1,1.3v7.4c0,0.9,0.4,1.3,1.1,1.3C396.5,77.2,396.9,76.8,396.9,75.9z"/>
	<path class="st1" d="M400.4,65.5h2.7l2.1,8.1h0v-8.1h1.9v13.5h-2.2l-2.5-9.8h0v9.8h-1.9V65.5z"/>
	<path class="st1" d="M408.6,65.5h5.8v1.9h-3.7v3.6h2.9v1.9h-2.9V77h3.7v1.9h-5.8V65.5z"/>
	<path class="st1" d="M416.1,78.2c-0.5-0.6-0.8-1.4-0.8-2.5V75h2v0.9c0,0.9,0.4,1.3,1.1,1.3c0.4,0,0.6-0.1,0.8-0.3
		c0.2-0.2,0.3-0.6,0.3-1c0-0.6-0.1-1.1-0.4-1.5c-0.3-0.4-0.7-0.9-1.4-1.5c-0.9-0.8-1.5-1.5-1.8-2.1c-0.3-0.6-0.5-1.3-0.5-2.1
		c0-1.1,0.3-1.9,0.8-2.5c0.5-0.6,1.3-0.9,2.3-0.9c1,0,1.8,0.3,2.3,0.9c0.5,0.6,0.8,1.4,0.8,2.5v0.6h-2v-0.7c0-0.5-0.1-0.8-0.3-1
		c-0.2-0.2-0.4-0.3-0.8-0.3c-0.7,0-1.1,0.4-1.1,1.3c0,0.5,0.1,0.9,0.4,1.4s0.7,0.9,1.4,1.5c0.9,0.8,1.5,1.5,1.8,2.1
		c0.3,0.6,0.5,1.4,0.5,2.2c0,1.1-0.3,2-0.8,2.5c-0.5,0.6-1.3,0.9-2.4,0.9C417.4,79.1,416.6,78.8,416.1,78.2z"/>
</g>
<text transform="matrix(1 0 0 1 63.2485 74.9258)" class="st1 st2 st3">press</text>
<g>
	<path class="st4" d="M148,75.6c-0.3-0.4-0.5-1-0.5-1.8v-1.1c0-0.5,0.1-1,0.3-1.4c0.2-0.4,0.5-0.6,0.9-0.8v0
		c-0.4-0.2-0.7-0.4-0.9-0.8c-0.2-0.4-0.3-0.8-0.3-1.4v-0.2c0-0.8,0.2-1.5,0.6-1.9c0.4-0.4,1-0.7,1.8-0.7h1.9v1.5h-1.8
		c-0.3,0-0.5,0.1-0.6,0.2c-0.1,0.2-0.2,0.4-0.2,0.8v0.6c0,0.4,0.1,0.7,0.2,0.8c0.2,0.2,0.4,0.3,0.7,0.3h0.6v-1.2h1.6v1.2h0.5v1.5
		h-0.5v3.4c0,0.3,0,0.5,0,0.7c0,0.2,0.1,0.4,0.1,0.5H151c-0.1-0.2-0.1-0.5-0.1-0.8h0c-0.2,0.3-0.4,0.6-0.6,0.7
		c-0.2,0.2-0.5,0.2-0.9,0.2C148.8,76.2,148.4,76,148,75.6z M150.9,73.8v-2.4h-0.6c-0.4,0-0.6,0.1-0.8,0.3c-0.2,0.2-0.3,0.5-0.3,1
		v1.1c0,0.3,0.1,0.6,0.2,0.7c0.1,0.1,0.3,0.2,0.6,0.2C150.5,74.7,150.8,74.4,150.9,73.8z"/>
</g>
</svg>
