<?xml version="1.0" encoding="utf-8"?>
<!-- Generator: Adobe Illustrator 21.0.0, SVG Export Plug-In . SVG Version: 6.00 Build 0)  -->
<svg version="1.1" id="Layer_1" xmlns="http://www.w3.org/2000/svg" xmlns:xlink="http://www.w3.org/1999/xlink" x="0px" y="0px"
	 viewBox="0 0 500 500" style="enable-background:new 0 0 500 500;" xml:space="preserve">
<style type="text/css">
	.st0{fill:#E6E6E6;}
	.st1{fill:#1A1A1A;}
</style>
<rect x="363.2" y="210.3" class="st0" width="9.8" height="9.8"/>
<rect x="363.2" y="200.5" class="st0" width="9.8" height="9.8"/>
<rect x="363.2" y="190.7" class="st0" width="9.8" height="9.8"/>
<rect x="363.2" y="180.9" class="st0" width="9.8" height="9.8"/>
<rect x="353.4" y="220.1" class="st0" width="9.8" height="9.8"/>
<rect x="353.4" y="210.3" class="st1" width="9.8" height="9.8"/>
<rect x="353.4" y="200.5" class="st1" width="9.8" height="9.8"/>
<rect x="353.4" y="190.7" class="st1" width="9.8" height="9.8"/>
<rect x="353.4" y="180.9" class="st1" width="9.8" height="9.8"/>
<rect x="353.4" y="171.1" class="st0" width="9.8" height="9.8"/>
<rect x="343.6" y="234.8" class="st0" width="9.8" height="9.8"/>
<rect x="343.6" y="225" class="st1" width="9.8" height="9.8"/>
<rect x="343.6" y="215.2" class="st1" width="9.8" height="9.8"/>
<rect x="343.6" y="205.4" class="st1" width="9.8" height="9.8"/>
<rect x="343.6" y="195.6" class="st1" width="9.8" height="9.8"/>
<rect x="343.6" y="185.8" class="st1" width="9.8" height="9.8"/>
<rect x="343.6" y="176" class="st1" width="9.8" height="9.8"/>
<rect x="343.6" y="166.2" class="st0" width="9.8" height="9.8"/>
<rect x="333.8" y="234.8" class="st0" width="9.8" height="9.8"/>
<rect x="333.8" y="225" class="st1" width="9.8" height="9.8"/>
<rect x="333.8" y="215.2" class="st1" width="9.8" height="9.8"/>
<rect x="333.8" y="205.4" class="st1" width="9.8" height="9.8"/>
<rect x="333.8" y="195.6" class="st1" width="9.8" height="9.8"/>
<rect x="333.8" y="185.8" class="st1" width="9.8" height="9.8"/>
<rect x="333.8" y="176" class="st1" width="9.8" height="9.8"/>
<rect x="333.8" y="166.2" class="st0" width="9.8" height="9.8"/>
<rect x="324" y="234.8" class="st0" width="9.8" height="9.8"/>
<rect x="324" y="225" class="st1" width="9.8" height="9.8"/>
<rect x="324" y="215.2" class="st1" width="9.8" height="9.8"/>
<rect x="324" y="205.4" class="st1" width="9.8" height="9.8"/>
<rect x="324" y="195.6" class="st1" width="9.8" height="9.8"/>
<rect x="324" y="185.8" class="st1" width="9.8" height="9.8"/>
<rect x="324" y="176" class="st1" width="9.8" height="9.8"/>
<rect x="324" y="166.2" class="st0" width="9.8" height="9.8"/>
<rect x="314.2" y="234.8" class="st0" width="9.8" height="9.8"/>
<rect x="314.2" y="225" class="st1" width="9.8" height="9.8"/>
<rect x="314.2" y="215.2" class="st1" width="9.8" height="9.8"/>
<rect x="314.2" y="205.4" class="st1" width="9.8" height="9.8"/>
<rect x="314.2" y="195.6" class="st1" width="9.8" height="9.8"/>
<rect x="314.2" y="185.8" class="st1" width="9.8" height="9.8"/>
<rect x="314.2" y="176" class="st1" width="9.8" height="9.8"/>
<rect x="314.2" y="166.2" class="st0" width="9.8" height="9.8"/>
<rect x="304.4" y="234.8" class="st0" width="9.8" height="9.8"/>
<rect x="304.4" y="225" class="st1" width="9.8" height="9.8"/>
<rect x="304.4" y="215.2" class="st1" width="9.8" height="9.8"/>
<rect x="304.4" y="205.4" class="st1" width="9.8" height="9.8"/>
<rect x="304.4" y="195.6" class="st1" width="9.8" height="9.8"/>
<rect x="304.4" y="185.8" class="st1" width="9.8" height="9.8"/>
<rect x="304.4" y="176" class="st1" width="9.8" height="9.8"/>
<rect x="304.4" y="166.2" class="st0" width="9.8" height="9.8"/>
<rect x="294.6" y="234.8" class="st0" width="9.8" height="9.8"/>
<rect x="294.6" y="225" class="st1" width="9.8" height="9.8"/>
<rect x="294.6" y="215.2" class="st1" width="9.8" height="9.8"/>
<rect x="294.6" y="205.4" class="st1" width="9.8" height="9.8"/>
<rect x="294.6" y="195.6" class="st1" width="9.8" height="9.8"/>
<rect x="294.6" y="185.8" class="st1" width="9.8" height="9.8"/>
<rect x="294.6" y="176" class="st1" width="9.8" height="9.8"/>
<rect x="294.6" y="166.2" class="st0" width="9.8" height="9.8"/>
<rect x="284.8" y="234.8" class="st0" width="9.8" height="9.8"/>
<rect x="284.8" y="225" class="st1" width="9.8" height="9.8"/>
<rect x="284.8" y="215.2" class="st1" width="9.8" height="9.8"/>
<rect x="284.8" y="205.4" class="st1" width="9.8" height="9.8"/>
<rect x="284.8" y="195.6" class="st1" width="9.8" height="9.8"/>
<rect x="284.8" y="185.8" class="st1" width="9.8" height="9.8"/>
<rect x="284.8" y="176" class="st1" width="9.8" height="9.8"/>
<rect x="284.8" y="166.2" class="st0" width="9.8" height="9.8"/>
<rect x="275" y="234.8" class="st0" width="9.8" height="9.8"/>
<rect x="275" y="225" class="st1" width="9.8" height="9.8"/>
<rect x="275" y="215.2" class="st1" width="9.8" height="9.8"/>
<rect x="275" y="205.4" class="st1" width="9.8" height="9.8"/>
<rect x="275" y="195.6" class="st1" width="9.8" height="9.8"/>
<rect x="275" y="185.8" class="st1" width="9.8" height="9.8"/>
<rect x="275" y="176" class="st1" width="9.8" height="9.8"/>
<rect x="275" y="166.2" class="st0" width="9.8" height="9.8"/>
<rect x="265.2" y="244.6" class="st0" width="9.8" height="9.8"/>
<rect x="265.2" y="234.8" class="st1" width="9.8" height="9.8"/>
<rect x="265.2" y="225" class="st1" width="9.8" height="9.8"/>
<rect x="265.2" y="215.2" class="st1" width="9.8" height="9.8"/>
<rect x="265.2" y="205.4" class="st1" width="9.8" height="9.8"/>
<rect x="265.2" y="195.6" class="st1" width="9.8" height="9.8"/>
<rect x="265.2" y="185.8" class="st1" width="9.8" height="9.8"/>
<rect x="265.2" y="176" class="st1" width="9.8" height="9.8"/>
<rect x="265.2" y="166.2" class="st0" width="9.8" height="9.8"/>
<rect x="255.4" y="254.4" class="st0" width="9.8" height="9.8"/>
<rect x="255.4" y="244.6" class="st1" width="9.8" height="9.8"/>
<rect x="255.4" y="234.8" class="st1" width="9.8" height="9.8"/>
<rect x="255.4" y="225" class="st1" width="9.8" height="9.8"/>
<rect x="255.4" y="215.2" class="st1" width="9.8" height="9.8"/>
<rect x="255.4" y="205.4" class="st1" width="9.8" height="9.8"/>
<rect x="255.4" y="195.6" class="st1" width="9.8" height="9.8"/>
<rect x="255.4" y="185.8" class="st1" width="9.8" height="9.8"/>
<rect x="255.4" y="176" class="st1" width="9.8" height="9.8"/>
<rect x="255.4" y="166.2" class="st0" width="9.8" height="9.8"/>
<rect x="245.6" y="264.2" class="st0" width="9.8" height="9.8"/>
<rect x="245.6" y="254.4" class="st1" width="9.8" height="9.8"/>
<rect x="245.6" y="244.6" class="st1" width="9.8" height="9.8"/>
<rect x="245.6" y="234.8" class="st1" width="9.8" height="9.8"/>
<rect x="245.6" y="225" class="st1" width="9.8" height="9.8"/>
<rect x="245.6" y="215.2" class="st1" width="9.8" height="9.8"/>
<rect x="245.6" y="205.4" class="st1" width="9.8" height="9.8"/>
<rect x="245.6" y="195.6" class="st1" width="9.8" height="9.8"/>
<rect x="245.6" y="185.8" class="st1" width="9.8" height="9.8"/>
<rect x="245.6" y="176" class="st1" width="9.8" height="9.8"/>
<rect x="245.6" y="166.2" class="st0" width="9.8" height="9.8"/>
<rect x="235.8" y="254.4" class="st0" width="9.8" height="9.8"/>
<rect x="235.8" y="244.6" class="st1" width="9.8" height="9.8"/>
<rect x="235.8" y="234.8" class="st1" width="9.8" height="9.8"/>
<rect x="235.8" y="225" class="st1" width="9.8" height="9.8"/>
<rect x="235.8" y="215.2" class="st1" width="9.8" height="9.8"/>
<rect x="235.8" y="205.4" class="st1" width="9.8" height="9.8"/>
<rect x="235.8" y="195.6" class="st1" width="9.8" height="9.8"/>
<rect x="235.8" y="185.8" class="st1" width="9.8" height="9.8"/>
<rect x="235.8" y="176" class="st1" width="9.8" height="9.8"/>
<rect x="235.8" y="166.2" class="st0" width="9.8" height="9.8"/>
<rect x="226" y="244.6" class="st0" width="9.8" height="9.8"/>
<rect x="226" y="234.8" class="st1" width="9.8" height="9.8"/>
<rect x="226" y="225" class="st1" width="9.8" height="9.8"/>
<rect x="226" y="215.2" class="st1" width="9.8" height="9.8"/>
<rect x="226" y="205.4" class="st1" width="9.8" height="9.8"/>
<rect x="226" y="195.6" class="st1" width="9.8" height="9.8"/>
<rect x="226" y="185.8" class="st1" width="9.8" height="9.8"/>
<rect x="226" y="176" class="st1" width="9.8" height="9.8"/>
<rect x="226" y="166.2" class="st0" width="9.8" height="9.8"/>
<rect x="216.2" y="234.8" class="st0" width="9.8" height="9.8"/>
<rect x="216.2" y="225" class="st1" width="9.8" height="9.8"/>
<rect x="216.2" y="215.2" class="st1" width="9.8" height="9.8"/>
<rect x="216.2" y="205.4" class="st1" width="9.8" height="9.8"/>
<rect x="216.2" y="195.6" class="st1" width="9.8" height="9.8"/>
<rect x="216.2" y="185.8" class="st1" width="9.8" height="9.8"/>
<rect x="216.2" y="176" class="st1" width="9.8" height="9.8"/>
<rect x="216.2" y="166.2" class="st0" width="9.8" height="9.8"/>
<rect x="206.4" y="234.8" class="st0" width="9.8" height="9.8"/>
<rect x="206.4" y="225" class="st1" width="9.8" height="9.8"/>
<rect x="206.4" y="215.2" class="st1" width="9.8" height="9.8"/>
<rect x="206.4" y="205.4" class="st1" width="9.8" height="9.8"/>
<rect x="206.4" y="195.6" class="st1" width="9.8" height="9.8"/>
<rect x="206.4" y="185.8" class="st1" width="9.8" height="9.8"/>
<rect x="206.4" y="176" class="st1" width="9.8" height="9.8"/>
<rect x="206.4" y="166.2" class="st0" width="9.8" height="9.8"/>
<rect x="196.6" y="234.8" class="st0" width="9.8" height="9.8"/>
<rect x="196.6" y="225" class="st1" width="9.8" height="9.8"/>
<rect x="196.6" y="215.2" class="st1" width="9.8" height="9.8"/>
<rect x="196.6" y="205.4" class="st1" width="9.8" height="9.8"/>
<rect x="196.6" y="195.6" class="st1" width="9.8" height="9.8"/>
<rect x="196.6" y="185.8" class="st1" width="9.8" height="9.8"/>
<rect x="196.6" y="176" class="st1" width="9.8" height="9.8"/>
<rect x="196.6" y="166.2" class="st0" width="9.8" height="9.8"/>
<rect x="186.7" y="234.8" class="st0" width="9.8" height="9.8"/>
<rect x="186.7" y="225" class="st1" width="9.8" height="9.8"/>
<rect x="186.7" y="215.2" class="st1" width="9.8" height="9.8"/>
<rect x="186.7" y="205.4" class="st1" width="9.8" height="9.8"/>
<rect x="186.7" y="195.6" class="st1" width="9.8" height="9.8"/>
<rect x="186.7" y="185.8" class="st1" width="9.8" height="9.8"/>
<rect x="186.7" y="176" class="st1" width="9.8" height="9.8"/>
<rect x="186.7" y="166.2" class="st0" width="9.8" height="9.8"/>
<rect x="176.9" y="234.8" class="st0" width="9.8" height="9.8"/>
<rect x="176.9" y="225" class="st1" width="9.8" height="9.8"/>
<rect x="176.9" y="215.2" class="st1" width="9.8" height="9.8"/>
<rect x="176.9" y="205.4" class="st1" width="9.8" height="9.8"/>
<rect x="176.9" y="185.8" class="st1" width="9.8" height="9.8"/>
<rect x="176.9" y="176" class="st1" width="9.8" height="9.8"/>
<rect x="176.9" y="166.2" class="st0" width="9.8" height="9.8"/>
<rect x="167.1" y="234.8" class="st0" width="9.8" height="9.8"/>
<rect x="167.1" y="225" class="st1" width="9.8" height="9.8"/>
<rect x="167.1" y="215.2" class="st1" width="9.8" height="9.8"/>
<rect x="167.1" y="205.4" class="st1" width="9.8" height="9.8"/>
<rect x="167.1" y="195.6" class="st1" width="9.8" height="9.8"/>
<rect x="167.1" y="185.8" class="st1" width="9.8" height="9.8"/>
<rect x="167.1" y="176" class="st1" width="9.8" height="9.8"/>
<rect x="167.1" y="166.2" class="st0" width="9.8" height="9.8"/>
<rect x="157.3" y="234.8" class="st0" width="9.8" height="9.8"/>
<rect x="157.3" y="225" class="st1" width="9.8" height="9.8"/>
<rect x="157.3" y="215.2" class="st1" width="9.8" height="9.8"/>
<rect x="157.3" y="205.4" class="st1" width="9.8" height="9.8"/>
<rect x="157.3" y="195.6" class="st1" width="9.8" height="9.8"/>
<rect x="157.3" y="185.8" class="st1" width="9.8" height="9.8"/>
<rect x="157.3" y="176" class="st1" width="9.8" height="9.8"/>
<rect x="157.3" y="166.2" class="st0" width="9.8" height="9.8"/>
<rect x="147.5" y="234.8" class="st0" width="9.8" height="9.8"/>
<rect x="147.5" y="225" class="st1" width="9.8" height="9.8"/>
<rect x="147.5" y="215.2" class="st1" width="9.8" height="9.8"/>
<rect x="147.5" y="205.4" class="st1" width="9.8" height="9.8"/>
<rect x="147.5" y="195.6" class="st1" width="9.8" height="9.8"/>
<rect x="147.5" y="185.8" class="st1" width="9.8" height="9.8"/>
<rect x="147.5" y="176" class="st1" width="9.8" height="9.8"/>
<rect x="147.5" y="166.2" class="st0" width="9.8" height="9.8"/>
<rect x="137.7" y="225" class="st0" width="9.8" height="9.8"/>
<rect x="137.7" y="215.2" class="st1" width="9.8" height="9.8"/>
<rect x="137.7" y="205.4" class="st1" width="9.8" height="9.8"/>
<rect x="137.7" y="195.6" class="st1" width="9.8" height="9.8"/>
<rect x="137.7" y="185.8" class="st1" width="9.8" height="9.8"/>
<rect x="137.7" y="176" class="st0" width="9.8" height="9.8"/>
<rect x="127.9" y="215.2" class="st0" width="9.8" height="9.8"/>
<rect x="127.9" y="205.4" class="st0" width="9.8" height="9.8"/>
<rect x="127.9" y="195.6" class="st0" width="9.8" height="9.8"/>
<rect x="127.9" y="185.8" class="st0" width="9.8" height="9.8"/>
<rect x="425.9" y="215.2" class="st0" width="9.8" height="9.8"/>
<rect x="425.9" y="205.4" class="st0" width="9.8" height="9.8"/>
<rect x="425.9" y="195.6" class="st0" width="9.8" height="9.8"/>
<rect x="425.9" y="185.8" class="st0" width="9.8" height="9.8"/>
<rect x="416.1" y="225" class="st0" width="9.8" height="9.8"/>
<rect x="416.1" y="215.2" class="st1" width="9.8" height="9.8"/>
<rect x="416.1" y="205.4" class="st1" width="9.8" height="9.8"/>
<rect x="416.1" y="195.6" class="st1" width="9.8" height="9.8"/>
<rect x="416.1" y="185.8" class="st1" width="9.8" height="9.8"/>
<rect x="416.1" y="176" class="st0" width="9.8" height="9.8"/>
<rect x="406.3" y="234.8" class="st0" width="9.8" height="9.8"/>
<rect x="406.3" y="225" class="st1" width="9.8" height="9.8"/>
<rect x="406.3" y="215.2" class="st1" width="9.8" height="9.8"/>
<rect x="406.3" y="205.4" class="st1" width="9.8" height="9.8"/>
<rect x="406.3" y="195.6" class="st1" width="9.8" height="9.8"/>
<rect x="406.3" y="185.8" class="st1" width="9.8" height="9.8"/>
<rect x="406.3" y="176" class="st1" width="9.8" height="9.8"/>
<rect x="406.3" y="166.2" class="st0" width="9.8" height="9.8"/>
<rect x="396.5" y="234.8" class="st0" width="9.8" height="9.8"/>
<rect x="396.5" y="225" class="st1" width="9.8" height="9.8"/>
<rect x="396.5" y="215.2" class="st1" width="9.8" height="9.8"/>
<rect x="396.5" y="205.4" class="st1" width="9.8" height="9.8"/>
<rect x="396.5" y="195.6" class="st1" width="9.8" height="9.8"/>
<rect x="396.5" y="185.8" class="st1" width="9.8" height="9.8"/>
<rect x="396.5" y="176" class="st1" width="9.8" height="9.8"/>
<rect x="396.5" y="166.2" class="st0" width="9.8" height="9.8"/>
<rect x="386.7" y="234.8" class="st0" width="9.8" height="9.8"/>
<rect x="386.7" y="225" class="st1" width="9.8" height="9.8"/>
<rect x="386.7" y="215.2" class="st1" width="9.8" height="9.8"/>
<rect x="386.7" y="205.4" class="st1" width="9.8" height="9.8"/>
<rect x="386.7" y="195.6" class="st1" width="9.8" height="9.8"/>
<rect x="386.7" y="185.8" class="st1" width="9.8" height="9.8"/>
<rect x="386.7" y="176" class="st1" width="9.8" height="9.8"/>
<rect x="386.7" y="166.2" class="st0" width="9.8" height="9.8"/>
<rect x="376.9" y="234.8" class="st0" width="9.8" height="9.8"/>
<rect x="376.9" y="225" class="st1" width="9.8" height="9.8"/>
<rect x="376.9" y="215.2" class="st1" width="9.8" height="9.8"/>
<rect x="376.9" y="205.4" class="st1" width="9.8" height="9.8"/>
<rect x="376.9" y="195.6" class="st1" width="9.8" height="9.8"/>
<rect x="376.9" y="185.8" class="st1" width="9.8" height="9.8"/>
<rect x="376.9" y="176" class="st1" width="9.8" height="9.8"/>
<rect x="376.9" y="166.2" class="st0" width="9.8" height="9.8"/>
<rect x="367.1" y="234.8" class="st0" width="9.8" height="9.8"/>
<rect x="367.1" y="225" class="st1" width="9.8" height="9.8"/>
<rect x="367.1" y="215.2" class="st1" width="9.8" height="9.8"/>
<rect x="367.1" y="205.4" class="st1" width="9.8" height="9.8"/>
<rect x="367.1" y="195.6" class="st1" width="9.8" height="9.8"/>
<rect x="367.1" y="185.8" class="st1" width="9.8" height="9.8"/>
<rect x="367.1" y="176" class="st1" width="9.8" height="9.8"/>
<rect x="367.1" y="166.2" class="st0" width="9.8" height="9.8"/>
<rect x="357.3" y="234.8" class="st0" width="9.8" height="9.8"/>
<rect x="357.3" y="225" class="st1" width="9.8" height="9.8"/>
<rect x="357.3" y="215.2" class="st1" width="9.8" height="9.8"/>
<rect x="357.3" y="205.4" class="st1" width="9.8" height="9.8"/>
<rect x="357.3" y="195.6" class="st1" width="9.8" height="9.8"/>
<rect x="357.3" y="185.8" class="st1" width="9.8" height="9.8"/>
<rect x="357.3" y="176" class="st1" width="9.8" height="9.8"/>
<rect x="357.3" y="166.2" class="st0" width="9.8" height="9.8"/>
<rect x="347.5" y="234.8" class="st0" width="9.8" height="9.8"/>
<rect x="347.5" y="225" class="st1" width="9.8" height="9.8"/>
<rect x="347.5" y="215.2" class="st1" width="9.8" height="9.8"/>
<rect x="347.5" y="205.4" class="st1" width="9.8" height="9.8"/>
<rect x="347.5" y="195.6" class="st1" width="9.8" height="9.8"/>
<rect x="347.5" y="185.8" class="st1" width="9.8" height="9.8"/>
<rect x="347.5" y="176" class="st1" width="9.8" height="9.8"/>
<rect x="347.5" y="166.2" class="st0" width="9.8" height="9.8"/>
<rect x="176.9" y="195.6" class="st1" width="9.8" height="9.8"/>
<rect x="127.5" y="210.3" class="st0" width="9.8" height="9.8"/>
<rect x="127.5" y="200.5" class="st0" width="9.8" height="9.8"/>
<rect x="127.5" y="190.7" class="st0" width="9.8" height="9.8"/>
<rect x="127.5" y="180.9" class="st0" width="9.8" height="9.8"/>
<rect x="137.3" y="220.1" class="st0" width="9.8" height="9.8"/>
<rect x="137.3" y="210.3" class="st1" width="9.8" height="9.8"/>
<rect x="137.3" y="200.5" class="st1" width="9.8" height="9.8"/>
<rect x="137.3" y="190.7" class="st1" width="9.8" height="9.8"/>
<rect x="137.3" y="180.9" class="st1" width="9.8" height="9.8"/>
<rect x="137.3" y="171.1" class="st0" width="9.8" height="9.8"/>
<rect x="147.1" y="234.8" class="st0" width="9.8" height="9.8"/>
<rect x="147.1" y="225" class="st1" width="9.8" height="9.8"/>
<rect x="147.1" y="215.2" class="st1" width="9.8" height="9.8"/>
<rect x="147.1" y="205.4" class="st1" width="9.8" height="9.8"/>
<rect x="147.1" y="195.6" class="st1" width="9.8" height="9.8"/>
<rect x="147.1" y="185.8" class="st1" width="9.8" height="9.8"/>
<rect x="147.1" y="176" class="st1" width="9.8" height="9.8"/>
<rect x="147.1" y="166.2" class="st0" width="9.8" height="9.8"/>
<rect x="156.9" y="234.8" class="st0" width="9.8" height="9.8"/>
<rect x="156.9" y="225" class="st1" width="9.8" height="9.8"/>
<rect x="156.9" y="215.2" class="st1" width="9.8" height="9.8"/>
<rect x="156.9" y="205.4" class="st1" width="9.8" height="9.8"/>
<rect x="156.9" y="195.6" class="st1" width="9.8" height="9.8"/>
<rect x="156.9" y="185.8" class="st1" width="9.8" height="9.8"/>
<rect x="156.9" y="176" class="st1" width="9.8" height="9.8"/>
<rect x="156.9" y="166.2" class="st0" width="9.8" height="9.8"/>
<rect x="166.7" y="234.8" class="st0" width="9.8" height="9.8"/>
<rect x="166.7" y="225" class="st1" width="9.8" height="9.8"/>
<rect x="166.7" y="215.2" class="st1" width="9.8" height="9.8"/>
<rect x="166.7" y="205.4" class="st1" width="9.8" height="9.8"/>
<rect x="166.7" y="195.6" class="st1" width="9.8" height="9.8"/>
<rect x="166.7" y="185.8" class="st1" width="9.8" height="9.8"/>
<rect x="166.7" y="176" class="st1" width="9.8" height="9.8"/>
<rect x="166.7" y="166.2" class="st0" width="9.8" height="9.8"/>
<rect x="176.5" y="234.8" class="st0" width="9.8" height="9.8"/>
<rect x="176.5" y="225" class="st1" width="9.8" height="9.8"/>
<rect x="176.5" y="215.2" class="st1" width="9.8" height="9.8"/>
<rect x="176.5" y="205.4" class="st1" width="9.8" height="9.8"/>
<rect x="176.5" y="195.6" class="st1" width="9.8" height="9.8"/>
<rect x="176.5" y="185.8" class="st1" width="9.8" height="9.8"/>
<rect x="176.5" y="176" class="st1" width="9.8" height="9.8"/>
<rect x="176.5" y="166.2" class="st0" width="9.8" height="9.8"/>
<rect x="186.3" y="234.8" class="st0" width="9.8" height="9.8"/>
<rect x="186.3" y="225" class="st1" width="9.8" height="9.8"/>
<rect x="186.3" y="215.2" class="st1" width="9.8" height="9.8"/>
<rect x="186.3" y="205.4" class="st1" width="9.8" height="9.8"/>
<rect x="186.3" y="195.6" class="st1" width="9.8" height="9.8"/>
<rect x="186.3" y="185.8" class="st1" width="9.8" height="9.8"/>
<rect x="186.3" y="176" class="st1" width="9.8" height="9.8"/>
<rect x="186.3" y="166.2" class="st0" width="9.8" height="9.8"/>
<rect x="196.1" y="234.8" class="st0" width="9.8" height="9.8"/>
<rect x="196.1" y="225" class="st1" width="9.8" height="9.8"/>
<rect x="196.1" y="215.2" class="st1" width="9.8" height="9.8"/>
<rect x="196.1" y="205.4" class="st1" width="9.8" height="9.8"/>
<rect x="196.1" y="195.6" class="st1" width="9.8" height="9.8"/>
<rect x="196.1" y="185.8" class="st1" width="9.8" height="9.8"/>
<rect x="196.1" y="176" class="st1" width="9.8" height="9.8"/>
<rect x="196.1" y="166.2" class="st0" width="9.8" height="9.8"/>
<rect x="205.9" y="234.8" class="st0" width="9.8" height="9.8"/>
<rect x="205.9" y="225" class="st1" width="9.8" height="9.8"/>
<rect x="205.9" y="215.2" class="st1" width="9.8" height="9.8"/>
<rect x="205.9" y="205.4" class="st1" width="9.8" height="9.8"/>
<rect x="205.9" y="195.6" class="st1" width="9.8" height="9.8"/>
<rect x="205.9" y="185.8" class="st1" width="9.8" height="9.8"/>
<rect x="205.9" y="176" class="st1" width="9.8" height="9.8"/>
<rect x="205.9" y="166.2" class="st0" width="9.8" height="9.8"/>
<rect x="215.7" y="234.8" class="st0" width="9.8" height="9.8"/>
<rect x="215.7" y="225" class="st1" width="9.8" height="9.8"/>
<rect x="215.7" y="215.2" class="st1" width="9.8" height="9.8"/>
<rect x="215.7" y="205.4" class="st1" width="9.8" height="9.8"/>
<rect x="215.7" y="195.6" class="st1" width="9.8" height="9.8"/>
<rect x="215.7" y="185.8" class="st1" width="9.8" height="9.8"/>
<rect x="215.7" y="176" class="st1" width="9.8" height="9.8"/>
<rect x="215.7" y="166.2" class="st0" width="9.8" height="9.8"/>
<rect x="225.5" y="244.6" class="st0" width="9.8" height="9.8"/>
<rect x="225.5" y="234.8" class="st1" width="9.8" height="9.8"/>
<rect x="225.5" y="225" class="st1" width="9.8" height="9.8"/>
<rect x="225.5" y="215.2" class="st1" width="9.8" height="9.8"/>
<rect x="225.5" y="205.4" class="st1" width="9.8" height="9.8"/>
<rect x="225.5" y="195.6" class="st1" width="9.8" height="9.8"/>
<rect x="225.5" y="185.8" class="st1" width="9.8" height="9.8"/>
<rect x="225.5" y="176" class="st1" width="9.8" height="9.8"/>
<rect x="225.5" y="166.2" class="st0" width="9.8" height="9.8"/>
<rect x="235.3" y="254.4" class="st0" width="9.8" height="9.8"/>
<rect x="235.3" y="244.6" class="st1" width="9.8" height="9.8"/>
<rect x="235.3" y="234.8" class="st1" width="9.8" height="9.8"/>
<rect x="235.3" y="225" class="st1" width="9.8" height="9.8"/>
<rect x="235.3" y="215.2" class="st1" width="9.8" height="9.8"/>
<rect x="235.3" y="205.4" class="st1" width="9.8" height="9.8"/>
<rect x="235.3" y="195.6" class="st1" width="9.8" height="9.8"/>
<rect x="235.3" y="185.8" class="st1" width="9.8" height="9.8"/>
<rect x="235.3" y="176" class="st1" width="9.8" height="9.8"/>
<rect x="235.3" y="166.2" class="st0" width="9.8" height="9.8"/>
<rect x="64.7" y="215.2" class="st0" width="9.8" height="9.8"/>
<rect x="64.7" y="205.4" class="st0" width="9.8" height="9.8"/>
<rect x="64.7" y="195.6" class="st0" width="9.8" height="9.8"/>
<rect x="64.7" y="185.8" class="st0" width="9.8" height="9.8"/>
<rect x="74.6" y="225" class="st0" width="9.8" height="9.8"/>
<rect x="74.6" y="215.2" class="st1" width="9.8" height="9.8"/>
<rect x="74.6" y="205.4" class="st1" width="9.8" height="9.8"/>
<rect x="74.6" y="195.6" class="st1" width="9.8" height="9.8"/>
<rect x="74.6" y="185.8" class="st1" width="9.8" height="9.8"/>
<rect x="74.6" y="176" class="st0" width="9.8" height="9.8"/>
<rect x="84.4" y="234.8" class="st0" width="9.8" height="9.8"/>
<rect x="84.4" y="225" class="st1" width="9.8" height="9.8"/>
<rect x="84.4" y="215.2" class="st1" width="9.8" height="9.8"/>
<rect x="84.4" y="205.4" class="st1" width="9.8" height="9.8"/>
<rect x="84.4" y="195.6" class="st1" width="9.8" height="9.8"/>
<rect x="84.4" y="185.8" class="st1" width="9.8" height="9.8"/>
<rect x="84.4" y="176" class="st1" width="9.8" height="9.8"/>
<rect x="84.4" y="166.2" class="st0" width="9.8" height="9.8"/>
<rect x="94.2" y="234.8" class="st0" width="9.8" height="9.8"/>
<rect x="94.2" y="225" class="st1" width="9.8" height="9.8"/>
<rect x="94.2" y="215.2" class="st1" width="9.8" height="9.8"/>
<rect x="94.2" y="205.4" class="st1" width="9.8" height="9.8"/>
<rect x="94.2" y="195.6" class="st1" width="9.8" height="9.8"/>
<rect x="94.2" y="185.8" class="st1" width="9.8" height="9.8"/>
<rect x="94.2" y="176" class="st1" width="9.8" height="9.8"/>
<rect x="94.2" y="166.2" class="st0" width="9.8" height="9.8"/>
<rect x="104" y="234.8" class="st0" width="9.8" height="9.8"/>
<rect x="104" y="225" class="st1" width="9.8" height="9.8"/>
<rect x="104" y="215.2" class="st1" width="9.8" height="9.8"/>
<rect x="104" y="205.4" class="st1" width="9.8" height="9.8"/>
<rect x="104" y="195.6" class="st1" width="9.8" height="9.8"/>
<rect x="104" y="185.8" class="st1" width="9.8" height="9.8"/>
<rect x="104" y="176" class="st1" width="9.8" height="9.8"/>
<rect x="104" y="166.2" class="st0" width="9.8" height="9.8"/>
<rect x="113.8" y="234.8" class="st0" width="9.8" height="9.8"/>
<rect x="113.8" y="225" class="st1" width="9.8" height="9.8"/>
<rect x="113.8" y="215.2" class="st1" width="9.8" height="9.8"/>
<rect x="113.8" y="205.4" class="st1" width="9.8" height="9.8"/>
<rect x="113.8" y="195.6" class="st1" width="9.8" height="9.8"/>
<rect x="113.8" y="185.8" class="st1" width="9.8" height="9.8"/>
<rect x="113.8" y="176" class="st1" width="9.8" height="9.8"/>
<rect x="113.8" y="166.2" class="st0" width="9.8" height="9.8"/>
<rect x="123.6" y="234.8" class="st0" width="9.8" height="9.8"/>
<rect x="123.6" y="225" class="st1" width="9.8" height="9.8"/>
<rect x="123.6" y="215.2" class="st1" width="9.8" height="9.8"/>
<rect x="123.6" y="205.4" class="st1" width="9.8" height="9.8"/>
<rect x="123.6" y="195.6" class="st1" width="9.8" height="9.8"/>
<rect x="123.6" y="185.8" class="st1" width="9.8" height="9.8"/>
<rect x="123.6" y="176" class="st1" width="9.8" height="9.8"/>
<rect x="123.6" y="166.2" class="st0" width="9.8" height="9.8"/>
<rect x="133.4" y="234.8" class="st0" width="9.8" height="9.8"/>
<rect x="133.4" y="225" class="st1" width="9.8" height="9.8"/>
<rect x="133.4" y="215.2" class="st1" width="9.8" height="9.8"/>
<rect x="133.4" y="205.4" class="st1" width="9.8" height="9.8"/>
<rect x="133.4" y="195.6" class="st1" width="9.8" height="9.8"/>
<rect x="133.4" y="185.8" class="st1" width="9.8" height="9.8"/>
<rect x="133.4" y="176" class="st1" width="9.8" height="9.8"/>
<rect x="133.4" y="166.2" class="st0" width="9.8" height="9.8"/>
<rect x="143.2" y="234.8" class="st0" width="9.8" height="9.8"/>
<rect x="143.2" y="225" class="st1" width="9.8" height="9.8"/>
<rect x="143.2" y="215.2" class="st1" width="9.8" height="9.8"/>
<rect x="143.2" y="205.4" class="st1" width="9.8" height="9.8"/>
<rect x="143.2" y="195.6" class="st1" width="9.8" height="9.8"/>
<rect x="143.2" y="185.8" class="st1" width="9.8" height="9.8"/>
<rect x="143.2" y="176" class="st1" width="9.8" height="9.8"/>
<rect x="143.2" y="166.2" class="st0" width="9.8" height="9.8"/>
</svg>
