<?xml version="1.0" encoding="utf-8"?>
<!-- Generator: Adobe Illustrator 21.0.0, SVG Export Plug-In . SVG Version: 6.00 Build 0)  -->
<svg version="1.1" id="Layer_1" xmlns="http://www.w3.org/2000/svg" xmlns:xlink="http://www.w3.org/1999/xlink" x="0px" y="0px"
	 viewBox="0 0 500 500" style="enable-background:new 0 0 500 500;" xml:space="preserve">
<style type="text/css">
	.st0{fill:#E6E6E6;}
	.st1{fill:#1A1A1A;}
</style>
<g>
	<rect x="357.8" y="215.7" class="st0" width="9.8" height="9.8"/>
	<rect x="357.8" y="205.9" class="st0" width="9.8" height="9.8"/>
	<rect x="357.8" y="196.1" class="st0" width="9.8" height="9.8"/>
	<rect x="357.8" y="186.3" class="st0" width="9.8" height="9.8"/>
	<rect x="348" y="225.5" class="st0" width="9.8" height="9.8"/>
	<rect x="348" y="215.7" class="st1" width="9.8" height="9.8"/>
	<rect x="348" y="205.9" class="st1" width="9.8" height="9.8"/>
	<rect x="348" y="196.1" class="st1" width="9.8" height="9.8"/>
	<rect x="348" y="186.3" class="st1" width="9.8" height="9.8"/>
	<rect x="348" y="176.5" class="st0" width="9.8" height="9.8"/>
	<rect x="338.2" y="235.3" class="st0" width="9.8" height="9.8"/>
	<rect x="338.2" y="225.5" class="st1" width="9.8" height="9.8"/>
	<rect x="338.2" y="215.7" class="st1" width="9.8" height="9.8"/>
	<rect x="338.2" y="205.9" class="st1" width="9.8" height="9.8"/>
	<rect x="338.2" y="196.1" class="st1" width="9.8" height="9.8"/>
	<rect x="338.2" y="186.3" class="st1" width="9.8" height="9.8"/>
	<rect x="338.2" y="176.5" class="st1" width="9.8" height="9.8"/>
	<rect x="338.2" y="166.7" class="st0" width="9.8" height="9.8"/>
	<rect x="328.4" y="235.3" class="st0" width="9.8" height="9.8"/>
	<rect x="328.4" y="225.5" class="st1" width="9.8" height="9.8"/>
	<rect x="328.4" y="215.7" class="st1" width="9.8" height="9.8"/>
	<rect x="328.4" y="205.9" class="st1" width="9.8" height="9.8"/>
	<rect x="328.4" y="196.1" class="st1" width="9.8" height="9.8"/>
	<rect x="328.4" y="186.3" class="st1" width="9.8" height="9.8"/>
	<rect x="328.4" y="176.5" class="st1" width="9.8" height="9.8"/>
	<rect x="328.4" y="166.7" class="st0" width="9.8" height="9.8"/>
	<rect x="318.6" y="235.3" class="st0" width="9.8" height="9.8"/>
	<rect x="318.6" y="225.5" class="st1" width="9.8" height="9.8"/>
	<rect x="318.6" y="215.7" class="st1" width="9.8" height="9.8"/>
	<rect x="318.6" y="205.9" class="st1" width="9.8" height="9.8"/>
	<rect x="318.6" y="196.1" class="st1" width="9.8" height="9.8"/>
	<rect x="318.6" y="186.3" class="st1" width="9.8" height="9.8"/>
	<rect x="318.6" y="176.5" class="st1" width="9.8" height="9.8"/>
	<rect x="318.6" y="166.7" class="st0" width="9.8" height="9.8"/>
	<rect x="308.8" y="235.3" class="st0" width="9.8" height="9.8"/>
	<rect x="308.8" y="225.5" class="st1" width="9.8" height="9.8"/>
	<rect x="308.8" y="215.7" class="st1" width="9.8" height="9.8"/>
	<rect x="308.8" y="205.9" class="st1" width="9.8" height="9.8"/>
	<rect x="308.8" y="196.1" class="st1" width="9.8" height="9.8"/>
	<rect x="308.8" y="186.3" class="st1" width="9.8" height="9.8"/>
	<rect x="308.8" y="176.5" class="st1" width="9.8" height="9.8"/>
	<rect x="308.8" y="166.7" class="st0" width="9.8" height="9.8"/>
	<rect x="299" y="235.3" class="st0" width="9.8" height="9.8"/>
	<rect x="299" y="225.5" class="st1" width="9.8" height="9.8"/>
	<rect x="299" y="215.7" class="st1" width="9.8" height="9.8"/>
	<rect x="299" y="205.9" class="st1" width="9.8" height="9.8"/>
	<rect x="299" y="196.1" class="st1" width="9.8" height="9.8"/>
	<rect x="299" y="186.3" class="st1" width="9.8" height="9.8"/>
	<rect x="299" y="176.5" class="st1" width="9.8" height="9.8"/>
	<rect x="299" y="166.7" class="st0" width="9.8" height="9.8"/>
	<rect x="289.2" y="235.3" class="st0" width="9.8" height="9.8"/>
	<rect x="289.2" y="225.5" class="st1" width="9.8" height="9.8"/>
	<rect x="289.2" y="215.7" class="st1" width="9.8" height="9.8"/>
	<rect x="289.2" y="205.9" class="st1" width="9.8" height="9.8"/>
	<rect x="289.2" y="196.1" class="st1" width="9.8" height="9.8"/>
	<rect x="289.2" y="186.3" class="st1" width="9.8" height="9.8"/>
	<rect x="289.2" y="176.5" class="st1" width="9.8" height="9.8"/>
	<rect x="289.2" y="166.7" class="st0" width="9.8" height="9.8"/>
	<rect x="279.4" y="235.3" class="st0" width="9.8" height="9.8"/>
	<rect x="279.4" y="225.5" class="st1" width="9.8" height="9.8"/>
	<rect x="279.4" y="215.7" class="st1" width="9.8" height="9.8"/>
	<rect x="279.4" y="205.9" class="st1" width="9.8" height="9.8"/>
	<rect x="279.4" y="196.1" class="st1" width="9.8" height="9.8"/>
	<rect x="279.4" y="186.3" class="st1" width="9.8" height="9.8"/>
	<rect x="279.4" y="176.5" class="st1" width="9.8" height="9.8"/>
	<rect x="279.4" y="166.7" class="st0" width="9.8" height="9.8"/>
	<rect x="269.6" y="235.3" class="st0" width="9.8" height="9.8"/>
	<rect x="269.6" y="225.5" class="st1" width="9.8" height="9.8"/>
	<rect x="269.6" y="215.7" class="st1" width="9.8" height="9.8"/>
	<rect x="269.6" y="205.9" class="st1" width="9.8" height="9.8"/>
	<rect x="269.6" y="196.1" class="st1" width="9.8" height="9.8"/>
	<rect x="269.6" y="186.3" class="st1" width="9.8" height="9.8"/>
	<rect x="269.6" y="176.5" class="st1" width="9.8" height="9.8"/>
	<rect x="269.6" y="166.7" class="st0" width="9.8" height="9.8"/>
	<rect x="259.8" y="245.1" class="st0" width="9.8" height="9.8"/>
	<rect x="259.8" y="235.3" class="st1" width="9.8" height="9.8"/>
	<rect x="259.8" y="225.5" class="st1" width="9.8" height="9.8"/>
	<rect x="259.8" y="215.7" class="st1" width="9.8" height="9.8"/>
	<rect x="259.8" y="205.9" class="st1" width="9.8" height="9.8"/>
	<rect x="259.8" y="196.1" class="st1" width="9.8" height="9.8"/>
	<rect x="259.8" y="186.3" class="st1" width="9.8" height="9.8"/>
	<rect x="259.8" y="176.5" class="st1" width="9.8" height="9.8"/>
	<rect x="259.8" y="166.7" class="st0" width="9.8" height="9.8"/>
	<rect x="250" y="254.9" class="st0" width="9.8" height="9.8"/>
	<rect x="250" y="245.1" class="st1" width="9.8" height="9.8"/>
	<rect x="250" y="235.3" class="st1" width="9.8" height="9.8"/>
	<rect x="250" y="225.5" class="st1" width="9.8" height="9.8"/>
	<rect x="250" y="215.7" class="st1" width="9.8" height="9.8"/>
	<rect x="250" y="205.9" class="st1" width="9.8" height="9.8"/>
	<rect x="250" y="196.1" class="st1" width="9.8" height="9.8"/>
	<rect x="250" y="186.3" class="st1" width="9.8" height="9.8"/>
	<rect x="250" y="176.5" class="st1" width="9.8" height="9.8"/>
	<rect x="250" y="166.7" class="st0" width="9.8" height="9.8"/>
	<rect x="240.2" y="264.7" class="st0" width="9.8" height="9.8"/>
	<rect x="240.2" y="254.9" class="st1" width="9.8" height="9.8"/>
	<rect x="240.2" y="245.1" class="st1" width="9.8" height="9.8"/>
	<rect x="240.2" y="235.3" class="st1" width="9.8" height="9.8"/>
	<rect x="240.2" y="225.5" class="st1" width="9.8" height="9.8"/>
	<rect x="240.2" y="215.7" class="st1" width="9.8" height="9.8"/>
	<rect x="240.2" y="205.9" class="st1" width="9.8" height="9.8"/>
	<rect x="240.2" y="196.1" class="st1" width="9.8" height="9.8"/>
	<rect x="240.2" y="186.3" class="st1" width="9.8" height="9.8"/>
	<rect x="240.2" y="176.5" class="st1" width="9.8" height="9.8"/>
	<rect x="240.2" y="166.7" class="st0" width="9.8" height="9.8"/>
	<rect x="230.4" y="254.9" class="st0" width="9.8" height="9.8"/>
	<rect x="230.4" y="245.1" class="st1" width="9.8" height="9.8"/>
	<rect x="230.4" y="235.3" class="st1" width="9.8" height="9.8"/>
	<rect x="230.4" y="225.5" class="st1" width="9.8" height="9.8"/>
	<rect x="230.4" y="215.7" class="st1" width="9.8" height="9.8"/>
	<rect x="230.4" y="205.9" class="st1" width="9.8" height="9.8"/>
	<rect x="230.4" y="196.1" class="st1" width="9.8" height="9.8"/>
	<rect x="230.4" y="186.3" class="st1" width="9.8" height="9.8"/>
	<rect x="230.4" y="176.5" class="st1" width="9.8" height="9.8"/>
	<rect x="230.4" y="166.7" class="st0" width="9.8" height="9.8"/>
	<rect x="220.6" y="245.1" class="st0" width="9.8" height="9.8"/>
	<rect x="220.6" y="235.3" class="st1" width="9.8" height="9.8"/>
	<rect x="220.6" y="225.5" class="st1" width="9.8" height="9.8"/>
	<rect x="220.6" y="215.7" class="st1" width="9.8" height="9.8"/>
	<rect x="220.6" y="205.9" class="st1" width="9.8" height="9.8"/>
	<rect x="220.6" y="196.1" class="st1" width="9.8" height="9.8"/>
	<rect x="220.6" y="186.3" class="st1" width="9.8" height="9.8"/>
	<rect x="220.6" y="176.5" class="st1" width="9.8" height="9.8"/>
	<rect x="220.6" y="166.7" class="st0" width="9.8" height="9.8"/>
	<rect x="210.8" y="235.3" class="st0" width="9.8" height="9.8"/>
	<rect x="210.8" y="225.5" class="st1" width="9.8" height="9.8"/>
	<rect x="210.8" y="215.7" class="st1" width="9.8" height="9.8"/>
	<rect x="210.8" y="205.9" class="st1" width="9.8" height="9.8"/>
	<rect x="210.8" y="196.1" class="st1" width="9.8" height="9.8"/>
	<rect x="210.8" y="186.3" class="st1" width="9.8" height="9.8"/>
	<rect x="210.8" y="176.5" class="st1" width="9.8" height="9.8"/>
	<rect x="210.8" y="166.7" class="st0" width="9.8" height="9.8"/>
	<rect x="201" y="235.3" class="st0" width="9.8" height="9.8"/>
	<rect x="201" y="225.5" class="st1" width="9.8" height="9.8"/>
	<rect x="201" y="215.7" class="st1" width="9.8" height="9.8"/>
	<rect x="201" y="205.9" class="st1" width="9.8" height="9.8"/>
	<rect x="201" y="196.1" class="st1" width="9.8" height="9.8"/>
	<rect x="201" y="186.3" class="st1" width="9.8" height="9.8"/>
	<rect x="201" y="176.5" class="st1" width="9.8" height="9.8"/>
	<rect x="201" y="166.7" class="st0" width="9.8" height="9.8"/>
	<rect x="191.2" y="235.3" class="st0" width="9.8" height="9.8"/>
	<rect x="191.2" y="225.5" class="st1" width="9.8" height="9.8"/>
	<rect x="191.2" y="215.7" class="st1" width="9.8" height="9.8"/>
	<rect x="191.2" y="205.9" class="st1" width="9.8" height="9.8"/>
	<rect x="191.2" y="196.1" class="st1" width="9.8" height="9.8"/>
	<rect x="191.2" y="186.3" class="st1" width="9.8" height="9.8"/>
	<rect x="191.2" y="176.5" class="st1" width="9.8" height="9.8"/>
	<rect x="191.2" y="166.7" class="st0" width="9.8" height="9.8"/>
	<rect x="181.4" y="235.3" class="st0" width="9.8" height="9.8"/>
	<rect x="181.4" y="225.5" class="st1" width="9.8" height="9.8"/>
	<rect x="181.4" y="215.7" class="st1" width="9.8" height="9.8"/>
	<rect x="181.4" y="205.9" class="st1" width="9.8" height="9.8"/>
	<rect x="181.4" y="196.1" class="st1" width="9.8" height="9.8"/>
	<rect x="181.4" y="186.3" class="st1" width="9.8" height="9.8"/>
	<rect x="181.4" y="176.5" class="st1" width="9.8" height="9.8"/>
	<rect x="181.4" y="166.7" class="st0" width="9.8" height="9.8"/>
	<rect x="171.6" y="235.3" class="st0" width="9.8" height="9.8"/>
	<rect x="171.6" y="225.5" class="st1" width="9.8" height="9.8"/>
	<rect x="171.6" y="215.7" class="st1" width="9.8" height="9.8"/>
	<rect x="171.6" y="205.9" class="st1" width="9.8" height="9.8"/>
	<rect x="171.6" y="196.1" class="st1" width="9.8" height="9.8"/>
	<rect x="171.6" y="186.3" class="st1" width="9.8" height="9.8"/>
	<rect x="171.6" y="176.5" class="st1" width="9.8" height="9.8"/>
	<rect x="171.6" y="166.7" class="st0" width="9.8" height="9.8"/>
	<rect x="161.8" y="235.3" class="st0" width="9.8" height="9.8"/>
	<rect x="161.8" y="225.5" class="st1" width="9.8" height="9.8"/>
	<rect x="161.8" y="215.7" class="st1" width="9.8" height="9.8"/>
	<rect x="161.8" y="205.9" class="st1" width="9.8" height="9.8"/>
	<rect x="161.8" y="196.1" class="st1" width="9.8" height="9.8"/>
	<rect x="161.8" y="186.3" class="st1" width="9.8" height="9.8"/>
	<rect x="161.8" y="176.5" class="st1" width="9.8" height="9.8"/>
	<rect x="161.8" y="166.7" class="st0" width="9.8" height="9.8"/>
	<rect x="152" y="235.3" class="st0" width="9.8" height="9.8"/>
	<rect x="152" y="225.5" class="st1" width="9.8" height="9.8"/>
	<rect x="152" y="215.7" class="st1" width="9.8" height="9.8"/>
	<rect x="152" y="205.9" class="st1" width="9.8" height="9.8"/>
	<rect x="152" y="196.1" class="st1" width="9.8" height="9.8"/>
	<rect x="152" y="186.3" class="st1" width="9.8" height="9.8"/>
	<rect x="152" y="176.5" class="st1" width="9.8" height="9.8"/>
	<rect x="152" y="166.7" class="st0" width="9.8" height="9.8"/>
	<rect x="142.2" y="235.3" class="st0" width="9.8" height="9.8"/>
	<rect x="142.2" y="225.5" class="st1" width="9.8" height="9.8"/>
	<rect x="142.2" y="215.7" class="st1" width="9.8" height="9.8"/>
	<rect x="142.2" y="205.9" class="st1" width="9.8" height="9.8"/>
	<rect x="142.2" y="196.1" class="st1" width="9.8" height="9.8"/>
	<rect x="142.2" y="186.3" class="st1" width="9.8" height="9.8"/>
	<rect x="142.2" y="176.5" class="st1" width="9.8" height="9.8"/>
	<rect x="142.2" y="166.7" class="st0" width="9.8" height="9.8"/>
	<rect x="132.4" y="225.5" class="st0" width="9.8" height="9.8"/>
	<rect x="132.4" y="215.7" class="st1" width="9.8" height="9.8"/>
	<rect x="132.4" y="205.9" class="st1" width="9.8" height="9.8"/>
	<rect x="132.4" y="196.1" class="st1" width="9.8" height="9.8"/>
	<rect x="132.4" y="186.3" class="st1" width="9.8" height="9.8"/>
	<rect x="132.4" y="176.5" class="st0" width="9.8" height="9.8"/>
	<rect x="122.5" y="215.7" class="st0" width="9.8" height="9.8"/>
	<rect x="122.5" y="205.9" class="st0" width="9.8" height="9.8"/>
	<rect x="122.5" y="196.1" class="st0" width="9.8" height="9.8"/>
	<rect x="122.5" y="186.3" class="st0" width="9.8" height="9.8"/>
</g>
</svg>
