<?xml version="1.0" encoding="utf-8"?>
<!-- Generator: Adobe Illustrator 21.0.0, SVG Export Plug-In . SVG Version: 6.00 Build 0)  -->
<svg version="1.1" id="Layer_1" xmlns="http://www.w3.org/2000/svg" xmlns:xlink="http://www.w3.org/1999/xlink" x="0px" y="0px"
	 viewBox="0 0 450 150" style="enable-background:new 0 0 450 150;" xml:space="preserve">
<style type="text/css">
	.st0{fill:#FFFFFF;}
</style>
<g>
	<path class="st0" d="M71,62.6h5.2c1.8,0,3.1,0.5,4,1.4c0.9,1,1.3,2.3,1.3,4.2v2.2c0,1.8-0.4,3.2-1.3,4.2c-0.9,1-2.2,1.4-4,1.4h-1.7
		v9.2H71V62.6z M76.2,72.8c0.6,0,1-0.2,1.3-0.5s0.4-0.9,0.4-1.7V68c0-0.8-0.1-1.3-0.4-1.7c-0.3-0.3-0.7-0.5-1.3-0.5h-1.7v7H76.2z"/>
	<path class="st0" d="M83.5,62.6h5.3c1.8,0,3.2,0.4,4,1.3c0.8,0.9,1.3,2.2,1.3,3.9v1.4c0,2.4-0.8,3.8-2.3,4.5v0.1
		c0.9,0.3,1.5,0.8,1.8,1.6c0.4,0.8,0.5,1.9,0.5,3.2v4c0,0.6,0,1.2,0.1,1.6c0,0.4,0.2,0.8,0.3,1.2h-3.6c-0.1-0.4-0.2-0.7-0.3-1
		c0-0.3-0.1-0.9-0.1-1.7v-4.1c0-1-0.2-1.8-0.5-2.2s-0.9-0.6-1.7-0.6h-1.2v9.7h-3.6V62.6z M88.4,72.3c0.7,0,1.2-0.2,1.6-0.6
		c0.4-0.4,0.5-1,0.5-1.8v-1.7c0-0.8-0.1-1.4-0.4-1.8c-0.3-0.4-0.8-0.6-1.4-0.6h-1.6v6.5H88.4z"/>
	<path class="st0" d="M96.5,62.6h9.7v3.2h-6.2v6h4.9v3.2h-4.9v7h6.2v3.2h-9.7V62.6z"/>
	<path class="st0" d="M109.1,84.1c-0.9-1-1.3-2.4-1.3-4.2v-1.3h3.4v1.6c0,1.5,0.6,2.2,1.8,2.2c0.6,0,1.1-0.2,1.4-0.5
		c0.3-0.4,0.5-0.9,0.5-1.7c0-1-0.2-1.8-0.6-2.5c-0.4-0.7-1.2-1.6-2.4-2.6c-1.5-1.3-2.5-2.5-3.1-3.5c-0.6-1-0.9-2.2-0.9-3.5
		c0-1.8,0.5-3.2,1.4-4.2c0.9-1,2.2-1.5,4-1.5c1.7,0,3,0.5,3.9,1.5c0.9,1,1.3,2.4,1.3,4.2v0.9h-3.4v-1.2c0-0.8-0.2-1.3-0.5-1.7
		c-0.3-0.4-0.7-0.5-1.3-0.5c-1.2,0-1.8,0.7-1.8,2.2c0,0.8,0.2,1.6,0.7,2.3c0.4,0.7,1.2,1.6,2.4,2.6c1.5,1.3,2.5,2.5,3.1,3.5
		c0.6,1.1,0.8,2.3,0.8,3.7c0,1.9-0.5,3.3-1.4,4.3c-0.9,1-2.3,1.5-4,1.5C111.3,85.6,110,85.1,109.1,84.1z"/>
	<path class="st0" d="M121.1,84.1c-0.9-1-1.3-2.4-1.3-4.2v-1.3h3.4v1.6c0,1.5,0.6,2.2,1.8,2.2c0.6,0,1.1-0.2,1.4-0.5
		c0.3-0.4,0.5-0.9,0.5-1.7c0-1-0.2-1.8-0.6-2.5c-0.4-0.7-1.2-1.6-2.4-2.6c-1.5-1.3-2.5-2.5-3.1-3.5c-0.6-1-0.9-2.2-0.9-3.5
		c0-1.8,0.5-3.2,1.4-4.2c0.9-1,2.2-1.5,4-1.5c1.7,0,3,0.5,3.9,1.5c0.9,1,1.3,2.4,1.3,4.2v0.9H127v-1.2c0-0.8-0.2-1.3-0.5-1.7
		c-0.3-0.4-0.7-0.5-1.3-0.5c-1.2,0-1.8,0.7-1.8,2.2c0,0.8,0.2,1.6,0.7,2.3c0.4,0.7,1.2,1.6,2.4,2.6c1.5,1.3,2.5,2.5,3.1,3.5
		c0.6,1.1,0.8,2.3,0.8,3.7c0,1.9-0.5,3.3-1.4,4.3c-0.9,1-2.3,1.5-4,1.5C123.3,85.6,122,85.1,121.1,84.1z"/>
	<path class="st0" d="M138.7,84.1c-0.9-1-1.3-2.4-1.3-4.2v-1.8h3.4v2c0,1.5,0.6,2.2,1.8,2.2c0.6,0,1.1-0.2,1.4-0.6
		c0.3-0.4,0.5-1,0.5-2v-1.8c0-1-0.2-1.8-0.6-2.2c-0.4-0.4-1-0.7-1.8-0.7h-1.2v-3.2h1.3c0.7,0,1.2-0.2,1.6-0.6c0.4-0.4,0.5-1,0.5-1.8
		v-1.7c0-0.8-0.2-1.3-0.5-1.7c-0.3-0.4-0.8-0.6-1.3-0.6c-1.1,0-1.7,0.7-1.7,2.1v1.5h-3.4v-1.2c0-1.8,0.4-3.2,1.3-4.2
		s2.2-1.5,3.9-1.5c1.7,0,3,0.5,3.9,1.4c0.9,1,1.3,2.3,1.3,4.2v0.8c0,1.2-0.2,2.2-0.6,3c-0.4,0.7-1,1.3-1.9,1.6v0.1
		c0.9,0.3,1.6,0.9,2,1.7s0.6,1.8,0.6,3v2c0,1.8-0.4,3.2-1.3,4.2c-0.9,1-2.2,1.4-4,1.4C140.9,85.6,139.6,85.1,138.7,84.1z"/>
	<path class="st0" d="M158.6,65.8h-3.7v-3.2h11v3.2h-3.7v19.4h-3.6V65.8z"/>
	<path class="st0" d="M168.6,84.1c-0.9-1-1.4-2.4-1.4-4.2V68c0-1.8,0.5-3.2,1.4-4.2c0.9-1,2.3-1.5,4-1.5c1.7,0,3.1,0.5,4,1.5
		c0.9,1,1.4,2.4,1.4,4.2v11.9c0,1.8-0.5,3.2-1.4,4.2c-0.9,1-2.3,1.5-4,1.5C170.8,85.6,169.5,85.1,168.6,84.1z M174.4,80.1V67.7
		c0-1.5-0.6-2.2-1.8-2.2c-1.2,0-1.8,0.7-1.8,2.2v12.4c0,1.5,0.6,2.2,1.8,2.2C173.8,82.3,174.4,81.6,174.4,80.1z"/>
	<path class="st0" d="M186.3,84.1c-0.9-1-1.3-2.4-1.3-4.2v-1.3h3.4v1.6c0,1.5,0.6,2.2,1.8,2.2c0.6,0,1.1-0.2,1.4-0.5
		c0.3-0.4,0.5-0.9,0.5-1.7c0-1-0.2-1.8-0.6-2.5c-0.4-0.7-1.2-1.6-2.4-2.6c-1.5-1.3-2.5-2.5-3.1-3.5c-0.6-1-0.9-2.2-0.9-3.5
		c0-1.8,0.5-3.2,1.4-4.2c0.9-1,2.2-1.5,4-1.5c1.7,0,3,0.5,3.9,1.5c0.9,1,1.3,2.4,1.3,4.2v0.9h-3.4v-1.2c0-0.8-0.2-1.3-0.5-1.7
		c-0.3-0.4-0.7-0.5-1.3-0.5c-1.2,0-1.8,0.7-1.8,2.2c0,0.8,0.2,1.6,0.7,2.3c0.4,0.7,1.2,1.6,2.4,2.6c1.5,1.3,2.5,2.5,3.1,3.5
		c0.6,1.1,0.8,2.3,0.8,3.7c0,1.9-0.5,3.3-1.4,4.3c-0.9,1-2.3,1.5-4,1.5C188.5,85.6,187.2,85.1,186.3,84.1z"/>
	<path class="st0" d="M196.8,62.6h3.4l1.6,17.4h0.1l1.7-17.4h3.9l1.7,17.4h0.1l1.6-17.4h3.1l-2.3,22.7h-4.4L205.5,70h-0.1l-1.6,15.3
		h-4.7L196.8,62.6z"/>
	<path class="st0" d="M215.7,62.6h3.6v22.7h-3.6V62.6z"/>
	<path class="st0" d="M224.7,65.8h-3.7v-3.2h11v3.2h-3.7v19.4h-3.6V65.8z"/>
	<path class="st0" d="M234.7,84.1c-0.9-1-1.3-2.3-1.3-4.1V67.8c0-1.8,0.4-3.1,1.3-4.1c0.9-1,2.2-1.5,3.9-1.5c1.7,0,3,0.5,3.9,1.5
		c0.9,1,1.3,2.3,1.3,4.1v2.4h-3.4v-2.6c0-1.4-0.6-2.1-1.8-2.1c-1.2,0-1.8,0.7-1.8,2.1v12.7c0,1.4,0.6,2.1,1.8,2.1
		c1.2,0,1.8-0.7,1.8-2.1v-3.5h3.4V80c0,1.8-0.4,3.1-1.3,4.1c-0.9,1-2.2,1.5-3.9,1.5C236.9,85.6,235.6,85.1,234.7,84.1z"/>
	<path class="st0" d="M245.9,62.6h3.6v9.2h3.8v-9.2h3.6v22.7h-3.6V75.1h-3.8v10.2h-3.6V62.6z"/>
	<path class="st0" d="M267.5,65.8h-3.7v-3.2h11v3.2h-3.7v19.4h-3.6V65.8z"/>
	<path class="st0" d="M277.5,84.1c-0.9-1-1.4-2.4-1.4-4.2V68c0-1.8,0.5-3.2,1.4-4.2c0.9-1,2.3-1.5,4-1.5s3.1,0.5,4,1.5
		c0.9,1,1.4,2.4,1.4,4.2v11.9c0,1.8-0.5,3.2-1.4,4.2c-0.9,1-2.3,1.5-4,1.5S278.4,85.1,277.5,84.1z M283.4,80.1V67.7
		c0-1.5-0.6-2.2-1.8-2.2s-1.8,0.7-1.8,2.2v12.4c0,1.5,0.6,2.2,1.8,2.2S283.4,81.6,283.4,80.1z"/>
	<path class="st0" d="M294.5,62.6h3.6v22.7h-3.6V62.6z"/>
	<path class="st0" d="M301.9,84.1c-0.9-1-1.3-2.3-1.3-4.1V67.8c0-1.8,0.4-3.1,1.3-4.1c0.9-1,2.2-1.5,3.9-1.5c1.7,0,3,0.5,3.9,1.5
		c0.9,1,1.3,2.3,1.3,4.1v2.4h-3.4v-2.6c0-1.4-0.6-2.1-1.8-2.1c-1.2,0-1.8,0.7-1.8,2.1v12.7c0,1.4,0.6,2.1,1.8,2.1
		c1.2,0,1.8-0.7,1.8-2.1v-3.5h3.4V80c0,1.8-0.4,3.1-1.3,4.1c-0.9,1-2.2,1.5-3.9,1.5C304.1,85.6,302.8,85.1,301.9,84.1z"/>
	<path class="st0" d="M313.1,62.6h9.7v3.2h-6.2v6h4.9v3.2h-4.9v7h6.2v3.2h-9.7V62.6z"/>
	<path class="st0" d="M330.8,84.1c-0.9-1-1.3-2.4-1.3-4.2v-1.3h3.4v1.6c0,1.5,0.6,2.2,1.8,2.2c0.6,0,1.1-0.2,1.4-0.5
		c0.3-0.4,0.5-0.9,0.5-1.7c0-1-0.2-1.8-0.6-2.5c-0.4-0.7-1.2-1.6-2.4-2.6c-1.5-1.3-2.5-2.5-3.1-3.5c-0.6-1-0.9-2.2-0.9-3.5
		c0-1.8,0.5-3.2,1.4-4.2c0.9-1,2.2-1.5,4-1.5c1.7,0,3,0.5,3.9,1.5c0.9,1,1.3,2.4,1.3,4.2v0.9h-3.4v-1.2c0-0.8-0.2-1.3-0.5-1.7
		c-0.3-0.4-0.7-0.5-1.3-0.5c-1.2,0-1.8,0.7-1.8,2.2c0,0.8,0.2,1.6,0.7,2.3c0.4,0.7,1.2,1.6,2.4,2.6c1.5,1.3,2.5,2.5,3.1,3.5
		c0.6,1.1,0.8,2.3,0.8,3.7c0,1.9-0.5,3.3-1.4,4.3c-0.9,1-2.3,1.5-4,1.5C333,85.6,331.7,85.1,330.8,84.1z"/>
	<path class="st0" d="M344.9,65.8h-3.7v-3.2h11v3.2h-3.7v19.4h-3.6V65.8z"/>
	<path class="st0" d="M354.9,84.1c-0.9-1-1.4-2.4-1.4-4.2V68c0-1.8,0.5-3.2,1.4-4.2c0.9-1,2.3-1.5,4-1.5s3.1,0.5,4,1.5
		c0.9,1,1.4,2.4,1.4,4.2v11.9c0,1.8-0.5,3.2-1.4,4.2c-0.9,1-2.3,1.5-4,1.5S355.9,85.1,354.9,84.1z M360.8,80.1V67.7
		c0-1.5-0.6-2.2-1.8-2.2s-1.8,0.7-1.8,2.2v12.4c0,1.5,0.6,2.2,1.8,2.2S360.8,81.6,360.8,80.1z"/>
	<path class="st0" d="M366.7,62.6h4.5l3.5,13.6h0.1V62.6h3.2v22.7h-3.7L370,68.7h-0.1v16.5h-3.2V62.6z"/>
	<path class="st0" d="M380.6,62.6h9.7v3.2h-6.2v6h4.9v3.2h-4.9v7h6.2v3.2h-9.7V62.6z"/>
</g>
</svg>
