<?xml version="1.0" encoding="utf-8"?>
<!-- Generator: Adobe Illustrator 21.0.0, SVG Export Plug-In . SVG Version: 6.00 Build 0)  -->
<svg version="1.1" id="Layer_1" xmlns="http://www.w3.org/2000/svg" xmlns:xlink="http://www.w3.org/1999/xlink" x="0px" y="0px"
	 viewBox="0 0 300 150" style="enable-background:new 0 0 300 150;" xml:space="preserve">
<style type="text/css">
	.st0{fill:#FFFFFF;}
</style>
<g>
	<path class="st0" d="M21.4,83.3c-0.6-0.7-0.9-1.6-0.9-2.8v-0.9h2.2v1c0,1,0.4,1.5,1.2,1.5c0.4,0,0.7-0.1,0.9-0.4
		c0.2-0.2,0.3-0.6,0.3-1.1c0-0.6-0.1-1.2-0.4-1.7c-0.3-0.5-0.8-1.1-1.6-1.7c-1-0.9-1.7-1.6-2-2.3s-0.6-1.5-0.6-2.3
		c0-1.2,0.3-2.1,0.9-2.8s1.5-1,2.6-1c1.1,0,2,0.3,2.6,1s0.9,1.6,0.9,2.8v0.6h-2.2v-0.8c0-0.5-0.1-0.9-0.3-1.1
		c-0.2-0.2-0.5-0.4-0.9-0.4c-0.8,0-1.2,0.5-1.2,1.4c0,0.5,0.1,1.1,0.4,1.5c0.3,0.5,0.8,1,1.6,1.7c1,0.9,1.7,1.6,2,2.3
		s0.6,1.5,0.6,2.5c0,1.2-0.3,2.2-0.9,2.8c-0.6,0.7-1.5,1-2.6,1C22.8,84.2,21.9,83.9,21.4,83.3z"/>
	<path class="st0" d="M29.6,83.2c-0.6-0.7-0.9-1.6-0.9-2.8v-7.9c0-1.2,0.3-2.1,0.9-2.8c0.6-0.7,1.5-1,2.7-1s2,0.3,2.7,1
		s0.9,1.6,0.9,2.8v7.9c0,1.2-0.3,2.1-0.9,2.8s-1.5,1-2.7,1S30.2,83.9,29.6,83.2z M33.5,80.6v-8.2c0-1-0.4-1.5-1.2-1.5
		S31,71.4,31,72.4v8.2c0,1,0.4,1.5,1.2,1.5S33.5,81.6,33.5,80.6z"/>
	<path class="st0" d="M37.4,69h3.4l1.5,10.7h0L43.8,69h3.4v15H45V72.7h0L43.2,84h-2l-1.7-11.4h0V84h-2.1V69z"/>
	<path class="st0" d="M49,69h6.4v2.1h-4.1v4h3.2v2.1h-3.2v4.6h4.1V84H49V69z"/>
	<path class="st0" d="M58.6,71.2h-2.5V69h7.3v2.1h-2.5V84h-2.4V71.2z"/>
	<path class="st0" d="M64.5,69h2.4v15h-2.4V69z"/>
	<path class="st0" d="M68.7,69H72l1.5,10.7h0L75.1,69h3.4v15h-2.2V72.7h0L74.4,84h-2l-1.7-11.4h0V84h-2.1V69z"/>
	<path class="st0" d="M80.2,69h6.4v2.1h-4.1v4h3.2v2.1h-3.2v4.6h4.1V84h-6.4V69z"/>
	<path class="st0" d="M88.5,83.3c-0.6-0.7-0.9-1.6-0.9-2.8v-0.9h2.2v1c0,1,0.4,1.5,1.2,1.5c0.4,0,0.7-0.1,0.9-0.4
		c0.2-0.2,0.3-0.6,0.3-1.1c0-0.6-0.1-1.2-0.4-1.7c-0.3-0.5-0.8-1.1-1.6-1.7c-1-0.9-1.7-1.6-2-2.3s-0.6-1.5-0.6-2.3
		c0-1.2,0.3-2.1,0.9-2.8s1.5-1,2.6-1c1.1,0,2,0.3,2.6,1s0.9,1.6,0.9,2.8v0.6h-2.2v-0.8c0-0.5-0.1-0.9-0.3-1.1
		c-0.2-0.2-0.5-0.4-0.9-0.4c-0.8,0-1.2,0.5-1.2,1.4c0,0.5,0.1,1.1,0.4,1.5c0.3,0.5,0.8,1,1.6,1.7c1,0.9,1.7,1.6,2,2.3
		s0.6,1.5,0.6,2.5c0,1.2-0.3,2.2-0.9,2.8c-0.6,0.7-1.5,1-2.6,1C89.9,84.2,89.1,83.9,88.5,83.3z"/>
	<path class="st0" d="M99.4,69h2.4v15h-2.4V69z"/>
	<path class="st0" d="M105.4,71.2h-2.5V69h7.3v2.1h-2.5V84h-2.4V71.2z"/>
	<path class="st0" d="M112.3,71.3h-0.8V69h2.3v2l-1.3,2.8h-1.1L112.3,71.3z"/>
	<path class="st0" d="M116,83.3c-0.6-0.7-0.9-1.6-0.9-2.8v-0.9h2.2v1c0,1,0.4,1.5,1.2,1.5c0.4,0,0.7-0.1,0.9-0.4
		c0.2-0.2,0.3-0.6,0.3-1.1c0-0.6-0.1-1.2-0.4-1.7c-0.3-0.5-0.8-1.1-1.6-1.7c-1-0.9-1.7-1.6-2-2.3s-0.6-1.5-0.6-2.3
		c0-1.2,0.3-2.1,0.9-2.8s1.5-1,2.6-1c1.1,0,2,0.3,2.6,1s0.9,1.6,0.9,2.8v0.6h-2.2v-0.8c0-0.5-0.1-0.9-0.3-1.1
		c-0.2-0.2-0.5-0.4-0.9-0.4c-0.8,0-1.2,0.5-1.2,1.4c0,0.5,0.1,1.1,0.4,1.5c0.3,0.5,0.8,1,1.6,1.7c1,0.9,1.7,1.6,2,2.3
		s0.6,1.5,0.6,2.5c0,1.2-0.3,2.2-0.9,2.8c-0.6,0.7-1.5,1-2.6,1C117.5,84.2,116.6,83.9,116,83.3z"/>
	<path class="st0" d="M126.4,84v-2.1c0.2,0.1,0.5,0.1,0.8,0.1c0.5,0,0.8-0.1,1-0.4s0.3-0.6,0.3-1.1V69h2.4v11.4
		c0,1.2-0.3,2.1-0.8,2.7s-1.4,0.9-2.6,0.9C127.1,84.1,126.7,84.1,126.4,84z"/>
	<path class="st0" d="M133.5,83.3c-0.6-0.7-0.9-1.6-0.9-2.8V69h2.4v11.6c0,0.5,0.1,0.9,0.3,1.1s0.5,0.3,0.9,0.3
		c0.4,0,0.7-0.1,0.9-0.3s0.3-0.6,0.3-1.1V69h2.3v11.4c0,1.2-0.3,2.1-0.9,2.8c-0.6,0.7-1.5,1-2.6,1C134.9,84.2,134.1,83.9,133.5,83.3
		z"/>
	<path class="st0" d="M141.7,83.3c-0.6-0.7-0.9-1.6-0.9-2.8v-0.9h2.2v1c0,1,0.4,1.5,1.2,1.5c0.4,0,0.7-0.1,0.9-0.4
		c0.2-0.2,0.3-0.6,0.3-1.1c0-0.6-0.1-1.2-0.4-1.7c-0.3-0.5-0.8-1.1-1.6-1.7c-1-0.9-1.7-1.6-2-2.3s-0.6-1.5-0.6-2.3
		c0-1.2,0.3-2.1,0.9-2.8c0.6-0.7,1.5-1,2.6-1c1.1,0,2,0.3,2.6,1c0.6,0.7,0.9,1.6,0.9,2.8v0.6h-2.2v-0.8c0-0.5-0.1-0.9-0.3-1.1
		s-0.5-0.4-0.9-0.4c-0.8,0-1.2,0.5-1.2,1.4c0,0.5,0.1,1.1,0.4,1.5c0.3,0.5,0.8,1,1.6,1.7c1,0.9,1.7,1.6,2,2.3
		c0.4,0.7,0.6,1.5,0.6,2.5c0,1.2-0.3,2.2-0.9,2.8s-1.5,1-2.6,1C143.2,84.2,142.3,83.9,141.7,83.3z"/>
	<path class="st0" d="M151.1,71.2h-2.5V69h7.3v2.1h-2.5V84h-2.4V71.2z"/>
	<path class="st0" d="M162.6,77.6l-2.9-8.6h2.5l1.6,5.5h0l1.6-5.5h2.3l-2.9,8.6V84h-2.4V77.6z"/>
	<path class="st0" d="M169.3,83.2c-0.6-0.7-0.9-1.6-0.9-2.8v-7.9c0-1.2,0.3-2.1,0.9-2.8s1.5-1,2.7-1c1.2,0,2,0.3,2.7,1
		s0.9,1.6,0.9,2.8v7.9c0,1.2-0.3,2.1-0.9,2.8s-1.5,1-2.7,1C170.8,84.2,169.9,83.9,169.3,83.2z M173.2,80.6v-8.2c0-1-0.4-1.5-1.2-1.5
		s-1.2,0.5-1.2,1.5v8.2c0,1,0.4,1.5,1.2,1.5S173.2,81.6,173.2,80.6z"/>
	<path class="st0" d="M177.9,83.3c-0.6-0.7-0.9-1.6-0.9-2.8V69h2.4v11.6c0,0.5,0.1,0.9,0.3,1.1c0.2,0.2,0.5,0.3,0.9,0.3
		s0.7-0.1,0.9-0.3s0.3-0.6,0.3-1.1V69h2.3v11.4c0,1.2-0.3,2.1-0.9,2.8c-0.6,0.7-1.5,1-2.6,1C179.4,84.2,178.5,83.9,177.9,83.3z"/>
	<path class="st0" d="M185.7,69h3.5c1.2,0,2.1,0.3,2.7,0.8c0.6,0.6,0.8,1.4,0.8,2.6v0.9c0,1.6-0.5,2.5-1.5,3v0
		c0.6,0.2,1,0.5,1.2,1.1c0.2,0.5,0.4,1.2,0.4,2.1v2.6c0,0.4,0,0.8,0,1c0,0.3,0.1,0.5,0.2,0.8h-2.4c-0.1-0.2-0.1-0.5-0.2-0.7
		c0-0.2,0-0.6,0-1.2v-2.7c0-0.7-0.1-1.2-0.3-1.4c-0.2-0.3-0.6-0.4-1.1-0.4h-0.8V84h-2.4V69z M188.9,75.4c0.5,0,0.8-0.1,1.1-0.4
		c0.2-0.2,0.4-0.7,0.4-1.2v-1.2c0-0.5-0.1-0.9-0.3-1.2c-0.2-0.2-0.5-0.4-0.9-0.4h-1.1v4.3H188.9z"/>
	<path class="st0" d="M197.8,69h2.4v15h-2.4V69z"/>
	<path class="st0" d="M201.9,69h3.4l1.5,10.7h0l1.5-10.7h3.4v15h-2.2V72.7h0L207.7,84h-2L204,72.7h0V84h-2.1V69z"/>
	<path class="st0" d="M215.3,69h3.2l2.4,15h-2.4l-0.4-3v0h-2.7L215,84h-2.2L215.3,69z M217.8,79l-1-7.4h0l-1,7.4H217.8z"/>
	<path class="st0" d="M222.7,83.3c-0.6-0.7-0.9-1.6-0.9-2.8v-7.9c0-1.2,0.3-2.1,0.9-2.8c0.6-0.7,1.5-1,2.6-1c1.1,0,2,0.3,2.6,1
		c0.6,0.7,0.9,1.6,0.9,2.8v1.3h-2.2v-1.4c0-1-0.4-1.5-1.2-1.5s-1.2,0.5-1.2,1.5v8.2c0,1,0.4,1.5,1.2,1.5s1.2-0.5,1.2-1.5v-2.9h-1.2
		v-2.1h3.4v4.9c0,1.2-0.3,2.1-0.9,2.8c-0.6,0.7-1.5,1-2.6,1C224.2,84.2,223.3,83.9,222.7,83.3z"/>
	<path class="st0" d="M230.4,69h2.4v15h-2.4V69z"/>
	<path class="st0" d="M234.5,69h3l2.3,9h0v-9h2.1v15h-2.4l-2.8-11h0v11h-2.1V69z"/>
	<path class="st0" d="M245.5,69h3.2l2.4,15h-2.4l-0.4-3v0h-2.7l-0.4,2.9H243L245.5,69z M248,79l-1-7.4h0l-1,7.4H248z"/>
	<path class="st0" d="M253.1,71.2h-2.5V69h7.3v2.1h-2.5V84h-2.4V71.2z"/>
	<path class="st0" d="M259,69h2.4v15H259V69z"/>
	<path class="st0" d="M263.9,83.2c-0.6-0.7-0.9-1.6-0.9-2.8v-7.9c0-1.2,0.3-2.1,0.9-2.8s1.5-1,2.7-1c1.2,0,2,0.3,2.7,1
		s0.9,1.6,0.9,2.8v7.9c0,1.2-0.3,2.1-0.9,2.8s-1.5,1-2.7,1C265.4,84.2,264.5,83.9,263.9,83.2z M267.8,80.6v-8.2c0-1-0.4-1.5-1.2-1.5
		s-1.2,0.5-1.2,1.5v8.2c0,1,0.4,1.5,1.2,1.5S267.8,81.6,267.8,80.6z"/>
	<path class="st0" d="M271.7,69h3l2.3,9h0v-9h2.1v15h-2.4l-2.8-11h0v11h-2.1V69z"/>
</g>
</svg>
