<?xml version="1.0" encoding="utf-8"?>
<!-- Generator: Adobe Illustrator 21.0.0, SVG Export Plug-In . SVG Version: 6.00 Build 0)  -->
<svg version="1.1" id="Layer_1" xmlns="http://www.w3.org/2000/svg" xmlns:xlink="http://www.w3.org/1999/xlink" x="0px" y="0px"
	 viewBox="0 0 300 150" style="enable-background:new 0 0 300 150;" xml:space="preserve">
<style type="text/css">
	.st0{fill:#F9F9F9;}
	.st1{fill:#FFFFFF;}
</style>
<g>
	<path class="st0" d="M77.3,61.2v20.5c0,1-0.8,1.8-1.8,1.8H55.4c-1,0-1.8-0.8-1.8-1.8V61.2c0-1,0.8-1.8,1.8-1.8h20.1
		C76.5,59.4,77.3,60.2,77.3,61.2z M82,57.8v27.3c0,1.7-1.4,3.2-3.2,3.2H52.2c-1.7,0-3.2-1.4-3.2-3.2V57.8c0-1.7,1.4-3.2,3.2-3.2
		h26.7C80.6,54.7,82,56.1,82,57.8z M78.6,61.2c0-1.7-1.3-3-3-3H55.4c-1.7,0-3,1.3-3,3v20.5c0,1.7,1.3,3,3,3h20.1c1.7,0,3-1.3,3-3
		L78.6,61.2L78.6,61.2z"/>
</g>
<g>
	<path d="M62.9,77.2c-0.5-0.6-0.8-1.5-0.8-2.6v-0.8h2.1v0.9c0,0.9,0.4,1.3,1.1,1.3c0.4,0,0.6-0.1,0.8-0.3s0.3-0.6,0.3-1.1
		c0-0.6-0.1-1.1-0.4-1.5c-0.3-0.4-0.7-1-1.5-1.6c-0.9-0.8-1.5-1.5-1.9-2.1c-0.4-0.6-0.5-1.4-0.5-2.2c0-1.1,0.3-1.9,0.8-2.5
		c0.6-0.6,1.4-0.9,2.4-0.9c1,0,1.8,0.3,2.4,0.9c0.5,0.6,0.8,1.5,0.8,2.6v0.6h-2.1v-0.7c0-0.5-0.1-0.8-0.3-1
		c-0.2-0.2-0.5-0.3-0.8-0.3c-0.7,0-1.1,0.4-1.1,1.3c0,0.5,0.1,1,0.4,1.4s0.8,1,1.5,1.6c0.9,0.8,1.5,1.5,1.9,2.1
		c0.3,0.6,0.5,1.4,0.5,2.3c0,1.1-0.3,2-0.8,2.6s-1.4,0.9-2.4,0.9C64.2,78.1,63.4,77.8,62.9,77.2z"/>
</g>
<g>
	<path class="st1" d="M86.8,65.4h2v11.1h3.3v1.8h-5.4V65.4z"/>
	<path class="st1" d="M93.7,77.6c-0.5-0.6-0.8-1.4-0.8-2.4v-6.8c0-1,0.3-1.8,0.8-2.4c0.5-0.6,1.3-0.8,2.3-0.8c1,0,1.8,0.3,2.3,0.8
		c0.5,0.6,0.8,1.4,0.8,2.4v6.8c0,1-0.3,1.8-0.8,2.4c-0.5,0.6-1.3,0.8-2.3,0.8C95,78.5,94.2,78.2,93.7,77.6z M97,75.4v-7
		c0-0.8-0.4-1.3-1.1-1.3c-0.7,0-1.1,0.4-1.1,1.3v7c0,0.8,0.4,1.3,1.1,1.3C96.7,76.7,97,76.2,97,75.4z"/>
	<path class="st1" d="M101,77.6c-0.5-0.6-0.8-1.4-0.8-2.4v-6.8c0-1,0.3-1.8,0.8-2.4c0.5-0.6,1.3-0.8,2.3-0.8c1,0,1.8,0.3,2.3,0.8
		c0.5,0.6,0.8,1.4,0.8,2.4v6.8c0,1-0.3,1.8-0.8,2.4c-0.5,0.6-1.3,0.8-2.3,0.8C102.3,78.5,101.6,78.2,101,77.6z M104.4,75.4v-7
		c0-0.8-0.4-1.3-1.1-1.3c-0.7,0-1.1,0.4-1.1,1.3v7c0,0.8,0.4,1.3,1.1,1.3C104,76.7,104.4,76.2,104.4,75.4z"/>
	<path class="st1" d="M107.8,65.4h2v5.4l2.6-5.4h2l-2.4,4.7l2.5,8.2h-2.1l-1.7-5.8l-0.8,1.6v4.1h-2V65.4z"/>
	<path class="st1" d="M118.4,65.4h3.1c1,0,1.8,0.3,2.3,0.8s0.8,1.3,0.8,2.4v6.5c0,1-0.3,1.8-0.8,2.4s-1.3,0.8-2.3,0.8h-3.1V65.4z
		 M121.4,76.5c0.3,0,0.6-0.1,0.8-0.3s0.3-0.5,0.3-1v-6.7c0-0.4-0.1-0.8-0.3-1s-0.4-0.3-0.8-0.3h-1v9.2H121.4z"/>
	<path class="st1" d="M126.5,77.6c-0.5-0.6-0.8-1.4-0.8-2.4v-6.8c0-1,0.3-1.8,0.8-2.4c0.5-0.6,1.3-0.8,2.3-0.8c1,0,1.8,0.3,2.3,0.8
		c0.5,0.6,0.8,1.4,0.8,2.4v6.8c0,1-0.3,1.8-0.8,2.4c-0.5,0.6-1.3,0.8-2.3,0.8C127.8,78.5,127,78.2,126.5,77.6z M129.8,75.4v-7
		c0-0.8-0.4-1.3-1.1-1.3c-0.7,0-1.1,0.4-1.1,1.3v7c0,0.8,0.4,1.3,1.1,1.3C129.5,76.7,129.8,76.2,129.8,75.4z"/>
	<path class="st1" d="M132.7,65.4h2l0.9,9.9h0l1-9.9h2.2l1,9.9h0l0.9-9.9h1.8l-1.3,12.9h-2.5l-0.9-8.7h0l-0.9,8.7h-2.7L132.7,65.4z"
		/>
	<path class="st1" d="M143.5,65.4h2.5l2,7.7h0v-7.7h1.8v12.9h-2.1l-2.4-9.4h0v9.4h-1.8V65.4z"/>
</g>
</svg>
