<?xml version="1.0" encoding="utf-8"?>
<!-- Generator: Adobe Illustrator 21.0.0, SVG Export Plug-In . SVG Version: 6.00 Build 0)  -->
<svg version="1.1" id="Layer_1" xmlns="http://www.w3.org/2000/svg" xmlns:xlink="http://www.w3.org/1999/xlink" x="0px" y="0px"
	 viewBox="0 0 300 150" style="enable-background:new 0 0 300 150;" xml:space="preserve">
<style type="text/css">
	.st0{fill:#FFFFFF;}
</style>
<g>
	<path class="st0" d="M103.4,52.3c-0.6-0.7-0.9-1.6-0.9-2.9V37.5h2.5v12.1c0,0.5,0.1,0.9,0.3,1.2c0.2,0.2,0.5,0.4,0.9,0.4
		s0.7-0.1,0.9-0.4c0.2-0.2,0.3-0.6,0.3-1.2V37.5h2.4v11.9c0,1.3-0.3,2.2-0.9,2.9c-0.6,0.7-1.5,1-2.7,1S104.1,53,103.4,52.3z"/>
	<path class="st0" d="M112.1,52.3c-0.6-0.7-0.9-1.6-0.9-2.9v-0.9h2.3v1.1c0,1,0.4,1.5,1.3,1.5c0.4,0,0.7-0.1,0.9-0.4
		c0.2-0.2,0.3-0.6,0.3-1.2c0-0.7-0.1-1.2-0.4-1.7c-0.3-0.5-0.8-1.1-1.7-1.8c-1-0.9-1.7-1.7-2.1-2.4c-0.4-0.7-0.6-1.5-0.6-2.4
		c0-1.2,0.3-2.2,0.9-2.9s1.5-1,2.7-1c1.2,0,2.1,0.3,2.7,1s0.9,1.6,0.9,2.9v0.6h-2.3V41c0-0.5-0.1-0.9-0.3-1.2
		c-0.2-0.2-0.5-0.4-0.9-0.4c-0.8,0-1.2,0.5-1.2,1.5c0,0.6,0.2,1.1,0.5,1.6c0.3,0.5,0.9,1.1,1.7,1.8c1,0.9,1.7,1.7,2.1,2.4
		c0.4,0.7,0.6,1.6,0.6,2.6c0,1.3-0.3,2.3-0.9,2.9c-0.6,0.7-1.6,1-2.8,1C113.6,53.3,112.7,53,112.1,52.3z"/>
	<path class="st0" d="M119.9,37.5h6.7v2.2h-4.2v4.1h3.4v2.2h-3.4v4.8h4.2v2.2h-6.7V37.5z"/>
	<path class="st0" d="M132,52.3c-0.6-0.7-0.9-1.6-0.9-2.9v-0.9h2.3v1.1c0,1,0.4,1.5,1.3,1.5c0.4,0,0.7-0.1,0.9-0.4
		c0.2-0.2,0.3-0.6,0.3-1.2c0-0.7-0.1-1.2-0.4-1.7c-0.3-0.5-0.8-1.1-1.7-1.8c-1-0.9-1.7-1.7-2.1-2.4c-0.4-0.7-0.6-1.5-0.6-2.4
		c0-1.2,0.3-2.2,0.9-2.9s1.5-1,2.7-1c1.2,0,2.1,0.3,2.7,1s0.9,1.6,0.9,2.9v0.6h-2.3V41c0-0.5-0.1-0.9-0.3-1.2
		c-0.2-0.2-0.5-0.4-0.9-0.4c-0.8,0-1.2,0.5-1.2,1.5c0,0.6,0.2,1.1,0.5,1.6c0.3,0.5,0.9,1.1,1.7,1.8c1,0.9,1.7,1.7,2.1,2.4
		c0.4,0.7,0.6,1.6,0.6,2.6c0,1.3-0.3,2.3-0.9,2.9c-0.6,0.7-1.6,1-2.8,1C133.6,53.3,132.7,53,132,52.3z"/>
	<path class="st0" d="M139.3,37.5h2.4l1.1,12h0l1.2-12h2.7l1.2,12h0l1.1-12h2.1l-1.6,15.6h-3.1l-1.1-10.5h0l-1.1,10.5h-3.3
		L139.3,37.5z"/>
	<path class="st0" d="M153.1,52.3c-0.6-0.7-1-1.7-1-2.9v-8.2c0-1.3,0.3-2.2,1-2.9c0.6-0.7,1.6-1,2.8-1c1.2,0,2.1,0.3,2.8,1
		c0.6,0.7,1,1.7,1,2.9v8.2c0,1.3-0.3,2.2-1,2.9c-0.6,0.7-1.6,1-2.8,1C154.6,53.3,153.7,53,153.1,52.3z M157.1,49.6V41
		c0-1-0.4-1.5-1.3-1.5c-0.8,0-1.3,0.5-1.3,1.5v8.5c0,1,0.4,1.5,1.3,1.5C156.7,51.1,157.1,50.6,157.1,49.6z"/>
	<path class="st0" d="M161.2,37.5h3.6c1.3,0,2.2,0.3,2.8,0.9c0.6,0.6,0.9,1.5,0.9,2.7v1c0,1.6-0.5,2.7-1.6,3.1v0
		c0.6,0.2,1,0.5,1.3,1.1s0.4,1.3,0.4,2.2v2.7c0,0.4,0,0.8,0,1.1c0,0.3,0.1,0.5,0.2,0.8h-2.5c-0.1-0.3-0.1-0.5-0.2-0.7
		c0-0.2,0-0.6,0-1.2v-2.9c0-0.7-0.1-1.2-0.3-1.5c-0.2-0.3-0.6-0.4-1.2-0.4h-0.8v6.7h-2.5V37.5z M164.6,44.2c0.5,0,0.9-0.1,1.1-0.4
		c0.2-0.3,0.4-0.7,0.4-1.3v-1.2c0-0.6-0.1-1-0.3-1.2c-0.2-0.3-0.5-0.4-0.9-0.4h-1.1v4.5H164.6z"/>
	<path class="st0" d="M170.2,37.5h3.8c1.2,0,2.1,0.3,2.7,1c0.6,0.7,0.9,1.6,0.9,2.9v7.9c0,1.3-0.3,2.2-0.9,2.9c-0.6,0.7-1.5,1-2.7,1
		h-3.8V37.5z M173.9,50.9c0.4,0,0.7-0.1,0.9-0.4c0.2-0.2,0.3-0.6,0.3-1.2v-8.1c0-0.5-0.1-0.9-0.3-1.2c-0.2-0.2-0.5-0.4-0.9-0.4h-1.3
		v11.2H173.9z"/>
</g>
<g>
	<path class="st0" d="M104.9,113.3c-0.6-0.7-0.9-1.6-0.9-2.9V98.5h2.5v12.1c0,0.5,0.1,0.9,0.3,1.2c0.2,0.2,0.5,0.4,0.9,0.4
		s0.7-0.1,0.9-0.4c0.2-0.2,0.3-0.6,0.3-1.2V98.5h2.4v11.9c0,1.3-0.3,2.2-0.9,2.9s-1.5,1-2.7,1S105.5,114,104.9,113.3z"/>
	<path class="st0" d="M113.5,113.3c-0.6-0.7-0.9-1.6-0.9-2.9v-0.9h2.3v1.1c0,1,0.4,1.5,1.3,1.5c0.4,0,0.7-0.1,0.9-0.4
		s0.3-0.6,0.3-1.2c0-0.7-0.1-1.2-0.4-1.7c-0.3-0.5-0.8-1.1-1.7-1.8c-1-0.9-1.7-1.7-2.1-2.4c-0.4-0.7-0.6-1.5-0.6-2.4
		c0-1.2,0.3-2.2,0.9-2.9s1.5-1,2.7-1c1.2,0,2.1,0.3,2.7,1s0.9,1.6,0.9,2.9v0.6h-2.3V102c0-0.5-0.1-0.9-0.3-1.2
		c-0.2-0.2-0.5-0.4-0.9-0.4c-0.8,0-1.2,0.5-1.2,1.5c0,0.6,0.2,1.1,0.5,1.6c0.3,0.5,0.9,1.1,1.7,1.8c1,0.9,1.7,1.7,2.1,2.4
		c0.4,0.7,0.6,1.6,0.6,2.6c0,1.3-0.3,2.3-0.9,2.9c-0.6,0.7-1.6,1-2.8,1C115,114.3,114.1,114,113.5,113.3z"/>
	<path class="st0" d="M121.3,98.5h6.7v2.2h-4.2v4.1h3.4v2.2h-3.4v4.8h4.2v2.2h-6.7V98.5z"/>
	<path class="st0" d="M133,98.5h3.5l1.6,11.2h0l1.6-11.2h3.5v15.6h-2.3v-11.8h0l-1.8,11.8H137l-1.8-11.8h0v11.8H133V98.5z"/>
	<path class="st0" d="M146.9,98.5h3.3l2.5,15.6h-2.5l-0.4-3.1v0h-2.8l-0.4,3.1h-2.3L146.9,98.5z M149.6,108.9l-1.1-7.7h0l-1.1,7.7
		H149.6z"/>
	<path class="st0" d="M154.7,113.3c-0.6-0.7-0.9-1.6-0.9-2.9v-8.2c0-1.3,0.3-2.2,0.9-2.9c0.6-0.7,1.5-1,2.7-1s2.1,0.3,2.7,1
		s0.9,1.6,0.9,2.9v1.3h-2.3V102c0-1-0.4-1.5-1.3-1.5c-0.8,0-1.3,0.5-1.3,1.5v8.6c0,1,0.4,1.5,1.3,1.5c0.8,0,1.3-0.5,1.3-1.5v-3.1
		h-1.2v-2.2h3.6v5.1c0,1.3-0.3,2.2-0.9,2.9s-1.5,1-2.7,1S155.3,114,154.7,113.3z"/>
	<path class="st0" d="M162.7,98.5h2.5v15.6h-2.5V98.5z"/>
	<path class="st0" d="M167.7,113.3c-0.6-0.7-0.9-1.6-0.9-2.8v-8.4c0-1.2,0.3-2.2,0.9-2.8c0.6-0.7,1.5-1,2.7-1c1.2,0,2.1,0.3,2.7,1
		c0.6,0.7,0.9,1.6,0.9,2.8v1.7h-2.3v-1.8c0-1-0.4-1.5-1.2-1.5c-0.8,0-1.2,0.5-1.2,1.5v8.7c0,1,0.4,1.4,1.2,1.4
		c0.8,0,1.2-0.5,1.2-1.4v-2.4h2.3v2.2c0,1.2-0.3,2.2-0.9,2.8c-0.6,0.7-1.5,1-2.7,1C169.2,114.3,168.3,114,167.7,113.3z"/>
	<path class="st0" d="M177.4,98.5h3.3l2.5,15.6h-2.5l-0.4-3.1v0h-2.8l-0.4,3.1h-2.3L177.4,98.5z M180.1,108.9l-1.1-7.7h0l-1.1,7.7
		H180.1z"/>
	<path class="st0" d="M184.5,98.5h2.5v13.4h4v2.2h-6.5V98.5z"/>
	<path class="st0" d="M196.2,113.3c-0.6-0.7-0.9-1.6-0.9-2.9v-0.9h2.3v1.1c0,1,0.4,1.5,1.3,1.5c0.4,0,0.7-0.1,0.9-0.4
		c0.2-0.2,0.3-0.6,0.3-1.2c0-0.7-0.1-1.2-0.4-1.7c-0.3-0.5-0.8-1.1-1.7-1.8c-1-0.9-1.7-1.7-2.1-2.4c-0.4-0.7-0.6-1.5-0.6-2.4
		c0-1.2,0.3-2.2,0.9-2.9c0.6-0.7,1.5-1,2.7-1c1.2,0,2.1,0.3,2.7,1s0.9,1.6,0.9,2.9v0.6h-2.3V102c0-0.5-0.1-0.9-0.3-1.2
		c-0.2-0.2-0.5-0.4-0.9-0.4c-0.8,0-1.2,0.5-1.2,1.5c0,0.6,0.2,1.1,0.5,1.6c0.3,0.5,0.9,1.1,1.7,1.8c1,0.9,1.7,1.7,2.1,2.4
		c0.4,0.7,0.6,1.6,0.6,2.6c0,1.3-0.3,2.3-0.9,2.9c-0.6,0.7-1.6,1-2.8,1C197.7,114.3,196.8,114,196.2,113.3z"/>
	<path class="st0" d="M205.9,100.7h-2.6v-2.2h7.6v2.2h-2.6v13.4h-2.5V100.7z"/>
	<path class="st0" d="M212.8,113.3c-0.6-0.7-1-1.7-1-2.9v-8.2c0-1.3,0.3-2.2,1-2.9c0.6-0.7,1.6-1,2.8-1s2.1,0.3,2.8,1
		c0.6,0.7,1,1.7,1,2.9v8.2c0,1.3-0.3,2.2-1,2.9c-0.6,0.7-1.6,1-2.8,1S213.5,114,212.8,113.3z M216.9,110.6V102c0-1-0.4-1.5-1.3-1.5
		s-1.3,0.5-1.3,1.5v8.5c0,1,0.4,1.5,1.3,1.5S216.9,111.6,216.9,110.6z"/>
	<path class="st0" d="M221,98.5h3.1l2.4,9.4h0v-9.4h2.2v15.6h-2.5l-2.9-11.4h0v11.4H221V98.5z"/>
	<path class="st0" d="M230.5,98.5h6.7v2.2H233v4.1h3.4v2.2H233v4.8h4.2v2.2h-6.7V98.5z"/>
</g>
<path class="st0" d="M92.1,25.4C89.7,22.5,85.9,21,81,21s-8.7,1.5-11.2,4.4c-2.5,2.9-2.9,6.3-2.9,8.1V54c0,1.8,0.4,5.2,2.9,8.1
	C72.3,65,76,66.5,81,66.5s8.7-1.5,11.2-4.4c2.5-2.9,2.9-6.3,2.9-8.1V33.5C95,31.7,94.6,28.3,92.1,25.4z M81,36.8
	c-1,0-1.9-0.8-1.9-1.9v-4c0-1,0.8-1.9,1.9-1.9s1.9,0.8,1.9,1.9v4C82.8,36,82,36.8,81,36.8z M93.5,54c0,1.8-0.6,11-12.6,11
	s-12.6-9.2-12.6-11V33.5c0-1.8,0.6-10.6,11.8-11v5.3c-1.5,0.3-2.6,1.7-2.6,3.2v4c0,1.6,1.1,2.9,2.6,3.2v6c0,0.4,0.3,0.7,0.7,0.7
	s0.7-0.3,0.7-0.7v-6c1.5-0.3,2.6-1.7,2.6-3.2v-4c0-1.6-1.1-2.9-2.6-3.2v-5.3c11.2,0.4,11.8,9.2,11.8,11V54z"/>
<path class="st0" d="M68,45h13.3v-5.9l-2.9-2.8l0.4-6.1l2.5-2.2c0,0,0.2-2.1,0.2-2.3c0-0.2-0.2-3.4-0.2-3.4l-6.6,0.7l-5.1,3.9
	l-1.5,4.8l-0.6,7.8L68,45z"/>
<path class="st0" d="M68,95.5V116c0,1.8,0.4,5.2,2.9,8.1c2.5,2.9,6.2,4.4,11.2,4.4s8.7-1.5,11.2-4.4c2.5-2.9,2.9-6.3,2.9-8.1V95.5
	c0-1.8-0.4-5.2-2.9-8.1C90.7,84.5,86.9,83,82,83s-8.7,1.5-11.2,4.4C68.3,90.3,68,93.7,68,95.5z M80.1,97v-4c0-1,0.8-1.9,1.9-1.9
	s1.9,0.8,1.9,1.9v4c0,1-0.8,1.9-1.9,1.9S80.1,98,80.1,97z M69.4,95.5c0-1.8,0.6-10.6,11.8-11v5.3c-1.5,0.3-2.6,1.7-2.6,3.2v4
	c0,1.6,1.1,2.9,2.6,3.2v6c0,0.4,0.3,0.7,0.7,0.7s0.7-0.3,0.7-0.7v-6c1.5-0.3,2.6-1.7,2.6-3.2v-4c0-1.6-1.1-2.9-2.6-3.2v-5.3
	c11.2,0.4,11.8,9.2,11.8,11V116c0,1.8-0.6,11-12.6,11s-12.6-9.2-12.6-11V95.5z"/>
<path class="st0" d="M95,107H81.7v-5.9l2.9-2.8l-0.4-6.1l-2.5-2.2c0,0-0.2-2.1-0.2-2.3c0-0.2,0.2-3.4,0.2-3.4l6.6,0.7l5.1,3.9
	l1.5,4.8l0.6,7.8L95,107z"/>
</svg>
